<svg width="24" height="24" viewBox="0 0 24 24" fill="none" xmlns="http://www.w3.org/2000/svg">
<g clip-path="url(#clip0_298_285)">
<path d="M21.4312 18.5438C21.4317 18.5564 21.4312 18.5691 21.4308 18.5818C21.4303 18.5921 21.4298 18.602 21.4294 18.6119C21.428 18.6245 21.427 18.6377 21.4252 18.6503C21.4237 18.6602 21.4223 18.67 21.4205 18.6804C21.4181 18.6926 21.4158 18.7043 21.413 18.7165C21.4106 18.7268 21.4078 18.7371 21.4045 18.748C21.4017 18.7592 21.398 18.7705 21.3942 18.7813C21.3905 18.7921 21.3867 18.8024 21.3825 18.8132C21.3783 18.824 21.3741 18.8348 21.3689 18.8451C21.3647 18.8555 21.3595 18.8653 21.3544 18.8752C21.3492 18.8864 21.3431 18.8972 21.337 18.9081C21.3319 18.917 21.3262 18.9259 21.3206 18.9344C21.3136 18.9461 21.3056 18.9573 21.2977 18.9686C21.2939 18.9733 21.2911 18.9785 21.2873 18.9831C21.2827 18.9892 21.278 18.9949 21.2733 19.001C21.2728 19.0014 21.2728 19.0019 21.2723 19.0024C20.1903 20.4105 18.7837 21.5769 17.2029 22.3755C15.5372 23.2169 13.7401 23.6438 11.8614 23.6438C8.69325 23.6438 5.71472 22.4098 3.47423 20.1698C1.23356 17.9292 0 14.9506 0 11.7825C0 9.15679 0.840844 6.66857 2.43098 4.58713C3.96998 2.57282 6.1523 1.0798 8.57578 0.382539C8.58 0.381133 8.58469 0.380664 8.58891 0.379258C8.60156 0.375977 8.61426 0.373164 8.62692 0.370352C8.63676 0.368477 8.64708 0.366133 8.65744 0.364727C8.66962 0.362383 8.68233 0.360977 8.69452 0.35957C8.7053 0.358633 8.71608 0.357227 8.72691 0.356758C8.73862 0.35582 8.75034 0.35582 8.76211 0.35582C8.77383 0.355352 8.78508 0.355352 8.79684 0.35582C8.80762 0.356289 8.81841 0.357227 8.82923 0.358164C8.84189 0.359102 8.85412 0.360039 8.86631 0.361914C8.87615 0.36332 8.886 0.365195 8.89636 0.36707C8.90901 0.369414 8.92219 0.371758 8.93531 0.375039C8.94422 0.377383 8.95359 0.379727 8.96301 0.382539C8.97614 0.386289 8.98931 0.390508 9.00244 0.394727C9.00666 0.396133 9.01041 0.39707 9.01416 0.398477C9.01978 0.400352 9.02494 0.403164 9.03009 0.405508C9.04228 0.410195 9.05451 0.415352 9.06623 0.420508C9.07608 0.425195 9.08639 0.430352 9.09581 0.435508C9.10612 0.440664 9.11597 0.446289 9.12586 0.451914C9.13617 0.458008 9.14648 0.464102 9.15684 0.471133C9.16528 0.476758 9.17372 0.482383 9.1822 0.488477C9.18876 0.493164 9.19486 0.497852 9.20095 0.503008C9.2047 0.505352 9.20845 0.508633 9.2122 0.511445C9.22017 0.517539 9.22814 0.52457 9.23611 0.531133C9.24502 0.53957 9.25392 0.547539 9.26241 0.556023C9.27037 0.563992 9.27834 0.571961 9.28584 0.579977C9.29334 0.588414 9.30084 0.596383 9.30787 0.604867C9.31584 0.614242 9.32334 0.624086 9.33084 0.633508C9.33694 0.641945 9.34303 0.649914 9.34866 0.658398C9.35616 0.668711 9.36272 0.679492 9.36975 0.69032C9.37491 0.699227 9.38006 0.707664 9.38475 0.716617C9.39084 0.727398 9.39647 0.73818 9.40209 0.749477C9.40678 0.75932 9.41147 0.769633 9.41616 0.779992C9.42037 0.790305 9.42459 0.800617 9.42834 0.810977C9.43303 0.823164 9.43725 0.835867 9.44147 0.848523C9.44287 0.85368 9.44522 0.858836 9.44662 0.864461C9.44803 0.868211 9.4485 0.871961 9.44944 0.87618C9.45319 0.889773 9.45647 0.903414 9.45928 0.917008C9.46116 0.926383 9.46303 0.935758 9.46444 0.944711C9.46678 0.957836 9.46819 0.971477 9.46959 0.98507C9.47053 0.994914 9.47194 1.00476 9.47241 1.01465C9.47334 1.02684 9.47334 1.03954 9.47381 1.0522C9.47381 1.06298 9.47381 1.07376 9.47334 1.08412C9.47287 1.09584 9.47194 1.10755 9.471 1.11932C9.47006 1.13104 9.46912 1.14229 9.46772 1.15359C9.46584 1.16437 9.46397 1.17515 9.46209 1.18598C9.45975 1.19816 9.45741 1.2104 9.45459 1.22259C9.45225 1.2329 9.44944 1.24274 9.44616 1.25263C9.44287 1.26529 9.43912 1.27752 9.43491 1.28971C9.43303 1.2944 9.43209 1.29862 9.43069 1.30284C8.87747 2.80101 8.59687 4.39541 8.59687 6.04045C8.59687 12.6531 13.206 18.0326 18.8712 18.0326C19.4488 18.0326 20.0278 17.9763 20.5923 17.865C20.5984 17.8641 20.604 17.8636 20.6101 17.8627C20.6237 17.8604 20.6369 17.858 20.6505 17.8566C20.6612 17.8557 20.6715 17.8547 20.6824 17.8538C20.6941 17.8533 20.7063 17.8529 20.718 17.8524C20.7298 17.8524 20.741 17.8524 20.7528 17.8529C20.764 17.8533 20.7753 17.8538 20.7866 17.8547C20.7978 17.8557 20.8095 17.8571 20.8208 17.8585C20.8321 17.8599 20.8433 17.8618 20.8551 17.8636C20.8659 17.866 20.8762 17.8679 20.887 17.8707C20.8987 17.873 20.911 17.8763 20.9227 17.8796C20.9325 17.8824 20.9419 17.8857 20.9518 17.8889C20.964 17.8927 20.9762 17.8974 20.988 17.9021C20.9973 17.9058 21.0062 17.9096 21.0152 17.9133L21.0504 17.9302C21.0593 17.9354 21.0687 17.94 21.0776 17.9452C21.0879 17.9513 21.0987 17.9574 21.1091 17.9644C21.1189 17.9705 21.1283 17.9775 21.1382 17.9841C21.1438 17.9883 21.1504 17.9921 21.156 17.9968C21.1593 17.9991 21.1621 18.0019 21.1649 18.0043C21.1747 18.0118 21.1841 18.0202 21.1935 18.0282C21.2015 18.0357 21.21 18.0427 21.218 18.0502C21.2264 18.0587 21.2344 18.0671 21.2424 18.0761C21.2504 18.084 21.2579 18.0925 21.2654 18.101C21.2729 18.1099 21.2794 18.1188 21.2865 18.1282C21.2935 18.1371 21.3005 18.146 21.3071 18.1554C21.3136 18.1648 21.3197 18.1746 21.3258 18.1845C21.3315 18.1944 21.3375 18.2038 21.3432 18.2136C21.3488 18.2235 21.354 18.2343 21.3591 18.2446C21.3638 18.2549 21.369 18.2648 21.3736 18.2751C21.3779 18.2855 21.3821 18.2962 21.3858 18.3071C21.39 18.3183 21.3943 18.3291 21.398 18.3404C21.4013 18.3507 21.4041 18.3615 21.4069 18.3719C21.4083 18.3765 21.4093 18.3812 21.4107 18.3859C21.4125 18.3934 21.4144 18.4009 21.4158 18.4084C21.4168 18.4122 21.4182 18.4159 21.4186 18.4197C21.42 18.4267 21.4205 18.4337 21.4219 18.4408C21.4238 18.4525 21.4257 18.4642 21.4271 18.4764C21.4285 18.4881 21.4294 18.5004 21.4299 18.5121C21.4308 18.5227 21.4312 18.5331 21.4312 18.5438Z" fill="#008479"/>
<path d="M21.4106 18.3865C21.2281 18.4916 21.0422 18.592 20.8546 18.6868C19.1889 19.5281 17.3913 19.9551 15.5126 19.9551C12.3444 19.9551 9.09048 18.966 7.12543 16.481C4.73199 13.4541 4.26231 10.2025 4.77142 8.08823C5.78396 3.8813 7.30749 2.97994 8.89768 0.8985C8.99996 0.764766 9.10084 0.632906 9.20078 0.503906C9.20453 0.50625 9.20828 0.509531 9.21203 0.512344C9.22 0.518438 9.22796 0.525469 9.23593 0.532031C9.24484 0.540469 9.25375 0.548437 9.26223 0.556922C9.2702 0.564891 9.27817 0.572859 9.28567 0.580875C9.29317 0.589313 9.30067 0.597281 9.3077 0.605766C9.31567 0.615141 9.32317 0.624984 9.33067 0.634406C9.33676 0.642844 9.34285 0.650812 9.34848 0.659297C9.35598 0.669609 9.36254 0.680391 9.36957 0.691219C9.37473 0.700125 9.37989 0.708563 9.38457 0.717516C9.39067 0.728297 9.39629 0.739078 9.40192 0.750375C9.4066 0.760219 9.41129 0.770531 9.41598 0.780891C9.4202 0.791203 9.42442 0.801516 9.42817 0.811875C9.43285 0.824062 9.43707 0.836766 9.44129 0.849422C9.4427 0.854578 9.44504 0.859734 9.44645 0.865359C9.44785 0.869109 9.44832 0.872859 9.44926 0.877078C9.45301 0.890672 9.45629 0.904313 9.4591 0.917906C9.46098 0.927281 9.46285 0.936656 9.46426 0.945609C9.4666 0.958734 9.46801 0.972375 9.46942 0.985969C9.47035 0.995813 9.47176 1.00566 9.47223 1.01555C9.47317 1.02773 9.47317 1.04044 9.47364 1.05309C9.47364 1.06387 9.47364 1.07466 9.47317 1.08502C9.4727 1.09673 9.47176 1.10845 9.47082 1.12022C9.46989 1.13194 9.46895 1.14319 9.46754 1.15448C9.46567 1.16527 9.46379 1.17605 9.46192 1.18687C9.45957 1.19906 9.45723 1.2113 9.45442 1.22348C9.45207 1.2338 9.44926 1.24364 9.44598 1.25353C9.4427 1.26619 9.43895 1.27842 9.43473 1.29061C9.43285 1.2953 9.43192 1.29952 9.43051 1.30373C8.87729 2.80191 8.5967 4.39631 8.5967 6.04134C8.5967 12.654 13.2058 18.0335 18.871 18.0335C19.4486 18.0335 20.0276 17.9772 20.5921 17.8659C20.5982 17.865 20.6038 17.8645 20.6099 17.8636C20.6235 17.8612 20.6367 17.8589 20.6503 17.8575C20.6611 17.8566 20.6714 17.8556 20.6822 17.8547C20.6939 17.8542 20.7061 17.8538 20.7179 17.8533C20.7296 17.8533 20.7408 17.8533 20.7526 17.8537C20.7639 17.8542 20.7751 17.8547 20.7864 17.8556C20.7977 17.8566 20.8094 17.858 20.8207 17.8594C20.8319 17.8608 20.8432 17.8627 20.8549 17.8645C20.8657 17.8669 20.876 17.8687 20.8869 17.8716C20.8986 17.8739 20.9108 17.8772 20.9225 17.8805C20.9324 17.8833 20.9417 17.8866 20.9516 17.8898C20.9638 17.8936 20.9761 17.8983 20.9878 17.903C20.9972 17.9067 21.0061 17.9105 21.015 17.9142L21.0502 17.9311C21.0591 17.9363 21.0685 17.9409 21.0774 17.9461C21.0878 17.9522 21.0985 17.9583 21.1089 17.9653C21.1187 17.9714 21.1281 17.9784 21.138 17.985C21.1436 17.9892 21.1502 17.993 21.1558 17.9977C21.1591 18 21.1619 18.0028 21.1647 18.0052C21.1746 18.0127 21.1839 18.0211 21.1934 18.0291C21.2013 18.0366 21.2098 18.0436 21.2178 18.0511C21.2262 18.0596 21.2342 18.068 21.2422 18.077C21.2502 18.0849 21.2577 18.0934 21.2652 18.1019C21.2727 18.1108 21.2792 18.1197 21.2863 18.1291C21.2933 18.138 21.3003 18.1469 21.3069 18.1563C21.3135 18.1657 21.3196 18.1755 21.3257 18.1854C21.3313 18.1953 21.3374 18.2047 21.343 18.2145C21.3486 18.2244 21.3538 18.2352 21.3589 18.2455C21.3636 18.2558 21.3688 18.2657 21.3735 18.276C21.3777 18.2864 21.3819 18.2971 21.3857 18.308C21.3899 18.3192 21.3941 18.33 21.3978 18.3413C21.4011 18.3516 21.4039 18.3624 21.4067 18.3727C21.4082 18.3771 21.4092 18.3818 21.4106 18.3865Z" fill="#0FB4A5"/>
<path d="M18.1871 4.60495L16.8968 5.86242L17.2013 7.63884C17.2567 7.96167 17.1267 8.28169 16.8616 8.47406C16.7119 8.58291 16.5369 8.6378 16.3605 8.6378C16.2249 8.6378 16.0883 8.60541 15.9626 8.53927L14.3673 7.7003L12.7719 8.5388C12.482 8.69128 12.1376 8.66644 11.8725 8.47406C11.6078 8.28169 11.4779 7.96167 11.5332 7.63884L11.8377 5.86242L10.5469 4.60448C10.3128 4.37644 10.2297 4.04095 10.3311 3.72942C10.4319 3.41784 10.6961 3.19547 11.0203 3.14808L12.8038 2.88909L13.6014 1.27313C13.7464 0.979406 14.0397 0.796875 14.3672 0.796875C14.6947 0.796875 14.988 0.979406 15.1329 1.27313L15.9306 2.88909L17.7141 3.14808C18.0378 3.19547 18.302 3.41789 18.4033 3.72942C18.5043 4.04091 18.4217 4.37644 18.1871 4.60495Z" fill="#FFCD57"/>
<path d="M23.7411 12.3003L22.4508 13.5577L22.7553 15.3342C22.8106 15.657 22.6807 15.977 22.416 16.1694C22.2659 16.2782 22.0909 16.3331 21.9144 16.3331C21.7788 16.3331 21.6428 16.3007 21.5166 16.2346L19.9212 15.3956L18.3264 16.2341C18.0364 16.3866 17.6916 16.3618 17.4269 16.1694C17.1618 15.977 17.0318 15.657 17.0872 15.3342L17.3917 13.5577L16.1014 12.2998C15.8668 12.0718 15.7842 11.7363 15.885 11.4247C15.9864 11.1132 16.2506 10.8908 16.5743 10.8434L18.3578 10.5844L19.1554 8.96844C19.3004 8.67472 19.5937 8.49219 19.9212 8.49219C20.2487 8.49219 20.5419 8.67472 20.6869 8.96844L21.4846 10.5844L23.268 10.8434C23.5923 10.8908 23.856 11.1132 23.9573 11.4247C24.0587 11.7363 23.9757 12.0718 23.7411 12.3003Z" fill="#FFCD57"/>
</g>
<defs>
<clipPath id="clip0_298_285">
<rect width="24" height="24" fill="white"/>
</clipPath>
</defs>
</svg>
