<svg width="14" height="18" viewBox="0 0 14 18" fill="none" xmlns="http://www.w3.org/2000/svg">
<path d="M5.79904 10.125C5.60348 10.125 5.40817 10.0776 5.23302 9.98233C4.88271 9.79203 4.66699 9.44035 4.66699 9.05999V1.70115C4.66699 1.095 5.01343 0.53041 5.57118 0.227336C6.12894 -0.0757381 6.82207 -0.0757381 7.37983 0.227093L13.0747 3.32102C13.6456 3.63115 14.0003 4.20886 14.0003 4.8291C14.0003 5.44935 13.6456 6.02706 13.0747 6.33718L6.36481 9.98233C6.18991 10.0776 5.99435 10.125 5.79904 10.125V10.125ZM6.93083 2.44315V7.21505L11.3229 4.82935L6.93083 2.44315Z" fill="#353945"/>
<path d="M6.47564 18C6.16278 18 5.85019 17.9242 5.57118 17.7728C5.01343 17.4697 4.66699 16.9051 4.66699 16.2989V8.94008C4.66699 8.55947 4.88271 8.20779 5.23302 8.01773C5.58307 7.82742 6.01476 7.82742 6.36481 8.01773L13.0747 11.6629C13.6456 11.9728 14.0003 12.5507 14.0003 13.171C14.0003 13.7912 13.6456 14.3689 13.0747 14.6791L7.37983 17.7728C7.10108 17.9244 6.78823 18 6.47564 18V18ZM6.93083 10.785V15.5569L11.3229 13.1707L6.93083 10.785Z" fill="#353945"/>
<path d="M8.16667 8.62517L1.70725 12.2272C1.52743 12.3275 1.33077 12.375 1.1367 12.375C0.745977 12.375 0.365615 12.1821 0.154706 11.8362C-0.16114 11.3182 0.0220455 10.6538 0.563828 10.352L7.02325 6.75" fill="#353945"/>
<path d="M7.02946 11.25L0.566914 7.65856C0.0240932 7.35712 -0.161166 6.69032 0.152867 6.16926C0.466641 5.6482 1.16156 5.47037 1.70412 5.77156L8.16667 9.363" fill="#353945"/>
</svg>
