<svg width="20" height="20" viewBox="0 0 20 20" fill="none" xmlns="http://www.w3.org/2000/svg">
<path d="M2.49805 5.82878V4.16341C2.49805 3.72173 2.6735 3.29814 2.98582 2.98582C3.29814 2.6735 3.72173 2.49805 4.16341 2.49805H5.82878" stroke="#E17100" stroke-width="1.66537" stroke-linecap="round" stroke-linejoin="round"/>
<path d="M14.1556 2.49805H15.821C16.2627 2.49805 16.6863 2.6735 16.9986 2.98582C17.3109 3.29814 17.4864 3.72173 17.4864 4.16341V5.82878" stroke="#E17100" stroke-width="1.66537" stroke-linecap="round" stroke-linejoin="round"/>
<path d="M17.4864 14.1556V15.821C17.4864 16.2627 17.3109 16.6863 16.9986 16.9986C16.6863 17.3109 16.2627 17.4863 15.821 17.4863H14.1556" stroke="#E17100" stroke-width="1.66537" stroke-linecap="round" stroke-linejoin="round"/>
<path d="M5.82878 17.4863H4.16341C3.72173 17.4863 3.29814 17.3109 2.98582 16.9986C2.6735 16.6863 2.49805 16.2627 2.49805 15.821V14.1556" stroke="#E17100" stroke-width="1.66537" stroke-linecap="round" stroke-linejoin="round"/>
</svg>
