<svg width="21" height="20" viewBox="0 0 21 20" fill="none" xmlns="http://www.w3.org/2000/svg">
<path d="M3 5H4.66667M4.66667 5H18M4.66667 5L4.66667 16.6667C4.66667 17.1087 4.84226 17.5326 5.15482 17.8452C5.46738 18.1577 5.89131 18.3333 6.33333 18.3333H14.6667C15.1087 18.3333 15.5326 18.1577 15.8452 17.8452C16.1577 17.5326 16.3333 17.1087 16.3333 16.6667V5.00001M7.16667 5.00001V3.33334C7.16667 2.89131 7.34226 2.46739 7.65482 2.15483C7.96738 1.84227 8.39131 1.66667 8.83333 1.66667H12.1667C12.6087 1.66667 13.0326 1.84227 13.3452 2.15483C13.6577 2.46739 13.8333 2.89131 13.8333 3.33334V5.00001M8.83333 9.16667V14.1667M12.1667 9.16667V14.1667" stroke="#5E6566" stroke-width="2" stroke-linecap="round" stroke-linejoin="round"/>
</svg>
