<svg width="24" height="24" viewBox="0 0 24 24" fill="none" xmlns="http://www.w3.org/2000/svg">
<path fill-rule="evenodd" clip-rule="evenodd" d="M7.00098 2.00391H17.001C18.1055 2.00391 19.001 2.89934 19.001 4.00391V20.0039C19.001 21.1085 18.1055 22.0039 17.001 22.0039H7.00098C5.89641 22.0039 5.00098 21.1085 5.00098 20.0039V4.00391C5.00098 2.89934 5.89641 2.00391 7.00098 2.00391ZM7.0002 4.00078V20.0008H17.0002V4.00078H7.0002ZM13.001 18.0023C13.001 18.5546 12.5533 19.0023 12.001 19.0023C11.4487 19.0023 11.001 18.5546 11.001 18.0023C11.001 17.4501 11.4487 17.0023 12.001 17.0023C12.5533 17.0023 13.001 17.4501 13.001 18.0023Z" fill="#353945"/>
</svg>
