<svg width="24" height="24" viewBox="0 0 24 24" fill="none" xmlns="http://www.w3.org/2000/svg">
<path d="M7 3C7 3.55228 7.44772 4 8 4H17C18.1046 4 19 4.89543 19 6V18C19 19.1046 18.1046 20 17 20H7C5.89543 20 5 19.1046 5 18V6C5 4.89543 5.89543 4 7 4H10C10.5523 4 11 3.55228 11 3C11 2.44772 10.5523 2 10 2H7C4.79086 2 3 3.79086 3 6V18C3 20.2091 4.79086 22 7 22H17C19.2091 22 21 20.2091 21 18V6C21 3.79086 19.2091 2 17 2H8C7.44772 2 7 2.44772 7 3Z" fill="#353945"/>
<path d="M8 8C7.44772 8 7 8.44771 7 9C7 9.55229 7.44772 10 8 10H16C16.5523 10 17 9.55229 17 9C17 8.44771 16.5523 8 16 8H8Z" fill="#353945"/>
<path d="M7 13C7 12.4477 7.44772 12 8 12H16C16.5523 12 17 12.4477 17 13C17 13.5523 16.5523 14 16 14H8C7.44772 14 7 13.5523 7 13Z" fill="#353945"/>
<path d="M7 17C7 16.4477 7.44772 16 8 16H12C12.5523 16 13 16.4477 13 17C13 17.5523 12.5523 18 12 18H8C7.44772 18 7 17.5523 7 17Z" fill="#353945"/>
</svg>
