<svg width="25" height="24" viewBox="0 0 25 24" fill="none" xmlns="http://www.w3.org/2000/svg">
<path fill-rule="evenodd" clip-rule="evenodd" d="M11.8728 7.32544C11.3757 7.75935 11.3757 8.46287 11.8728 8.89679L15.4274 12L11.8728 15.1032C11.3757 15.5371 11.3757 16.2406 11.8728 16.6746C12.3698 17.1085 13.1757 17.1085 13.6727 16.6746L18.1272 12.7857C18.6243 12.3518 18.6243 11.6482 18.1272 11.2143L13.6727 7.32544C13.1757 6.89152 12.3698 6.89152 11.8728 7.32544Z" fill="#333"/>
<path fill-rule="evenodd" clip-rule="evenodd" d="M6.76627 8.26035C6.41124 8.60748 6.41124 9.1703 6.76627 9.51743L9.30526 12L6.76627 14.4826C6.41124 14.8297 6.41124 15.3925 6.76627 15.7397C7.12129 16.0868 7.69689 16.0868 8.05192 15.7397L11.2337 12.6285C11.5888 12.2814 11.5888 11.7186 11.2337 11.3715L8.05192 8.26035C7.69689 7.91322 7.12129 7.91322 6.76627 8.26035Z" fill="#333"/>
</svg>
