<svg width="16" height="17" viewBox="0 0 16 17" fill="none" xmlns="http://www.w3.org/2000/svg">
<path d="M8 14.5C11.3137 14.5 14 11.8137 14 8.5C14 5.18629 11.3137 2.5 8 2.5C4.68629 2.5 2 5.18629 2 8.5C2 11.8137 4.68629 14.5 8 14.5Z" fill="#333"/>
<path d="M10.3076 6.63376C10.4583 6.46376 10.7114 6.45457 10.8729 6.61324C11.0344 6.77191 11.0432 7.03835 10.8924 7.20835L8.09243 10.3662C7.94618 10.5312 7.70242 10.5455 7.53969 10.3986L6.13969 9.13547C5.97196 8.98414 5.95254 8.71833 6.0963 8.54177C6.24007 8.36521 6.49259 8.34477 6.66032 8.4961L7.7692 9.49659L10.3076 6.63376Z" fill="white" stroke="white" stroke-width="0.3"/>
</svg>
