<svg width="73" height="72" viewBox="0 0 73 72" fill="none" xmlns="http://www.w3.org/2000/svg">
<g clip-path="url(#clip0_788_351)">
<path d="M36.5 72C56.3823 72 72.5 55.8823 72.5 36C72.5 16.1178 56.3823 0 36.5 0C16.6178 0 0.5 16.1178 0.5 36C0.5 55.8823 16.6178 72 36.5 72Z" fill="#DADEDF"/>
<mask id="mask0_788_351" style="mask-type:alpha" maskUnits="userSpaceOnUse" x="0" y="0" width="73" height="72">
<path d="M36.5 72C56.3823 72 72.5 55.8823 72.5 36C72.5 16.1178 56.3823 0 36.5 0C16.6178 0 0.5 16.1178 0.5 36C0.5 55.8823 16.6178 72 36.5 72Z" fill="#00B83D"/>
</mask>
<g mask="url(#mask0_788_351)">
<path d="M35.6628 46.8838L64.1279 64.4652C79.4591 60.3768 72.4992 52.6945 72.4992 36.0005C72.4992 35.6598 72.4992 35.3191 72.4992 34.9784L39.0116 13.3954L35.6628 46.8838Z" fill="#BFC6C6"/>
<path d="M35.6628 61.9536L63.2907 78.6977C78.6219 74.6094 68.3139 88.0417 68.3139 71.3477C68.3139 71.007 66.6403 82.2309 69.1511 69.4884L40.686 51.907L35.6628 61.9536Z" fill="#BFC6C6"/>
</g>
<rect x="30.6395" y="11.7209" width="11.7209" height="35.1628" rx="5.86046" fill="white"/>
<rect x="30.6395" y="50.2325" width="11.7209" height="11.7209" rx="5.86046" fill="white"/>
</g>
<defs>
<clipPath id="clip0_788_351">
<rect width="72" height="72" fill="white" transform="translate(0.5)"/>
</clipPath>
</defs>
</svg>
