<svg width="21" height="20" viewBox="0 0 21 20" fill="none" xmlns="http://www.w3.org/2000/svg">
<path d="M9.66602 3.33332H3.83268C3.39065 3.33332 2.96673 3.50891 2.65417 3.82147C2.34161 4.13403 2.16602 4.55796 2.16602 4.99999V16.6667C2.16602 17.1087 2.34161 17.5326 2.65417 17.8452C2.96673 18.1577 3.39065 18.3333 3.83268 18.3333H15.4993C15.9414 18.3333 16.3653 18.1577 16.6779 17.8452C16.9904 17.5326 17.166 17.1087 17.166 16.6667V10.8333M15.916 2.08332C16.2475 1.7518 16.6972 1.56555 17.166 1.56555C17.6349 1.56555 18.0845 1.7518 18.416 2.08332C18.7475 2.41484 18.9338 2.86448 18.9338 3.33332C18.9338 3.80216 18.7475 4.2518 18.416 4.58332L10.4993 12.5L7.16602 13.3333L7.99935 9.99999L15.916 2.08332Z" stroke="#008479" stroke-width="2" stroke-linecap="round" stroke-linejoin="round"/>
</svg>
