<svg width="167" height="116" viewBox="0 0 167 116" fill="none" xmlns="http://www.w3.org/2000/svg">
<path d="M63.0343 81.9231L49.5918 58.6152L27.4902 72.4302L41.1866 96.2405C41.4912 96.8452 41.8665 97.4118 42.3043 97.9284C46.0823 102.372 53.6285 102.167 59.149 97.4698C64.2741 93.1039 65.8654 86.4159 63.0343 81.9231Z" fill="#008479"/>
<path d="M54.7613 88.6615C55.9708 87.6291 57.0347 86.4377 57.9243 85.12C57.8667 85.003 57.8031 84.889 57.7339 84.7785L52.5112 75.7246C51.6976 76.8423 50.7538 77.8593 49.6996 78.754C43.7105 83.8419 35.5444 84.0712 31.4248 79.271L37.8777 90.4908C42.2658 93.8763 49.3873 93.2372 54.7613 88.6615Z" fill="#0FB4A5"/>
<path style="mix-blend-mode:multiply" d="M50.2166 100.524C49.7184 99.9365 49.2908 99.2931 48.9426 98.6064L33.2645 71.357L50.6657 60.4787L49.5918 58.6152L27.4902 72.4302L41.1866 96.2405C41.4912 96.8452 41.8665 97.4118 42.3043 97.9284C44.3251 100.309 47.4295 101.343 50.7193 101.08C50.5485 100.894 50.3776 100.714 50.2166 100.524Z" fill="url(#paint0_linear_1_5936)"/>
<path d="M45.6168 74.0224C51.14 69.3263 52.5515 61.9179 48.7697 57.4754C44.9878 53.0328 37.4447 53.2383 31.9215 57.9344C26.3983 62.6305 24.9867 70.0389 28.7685 74.4815C32.5504 78.924 40.0936 78.7185 45.6168 74.0224Z" fill="#008479"/>
<path style="mix-blend-mode:multiply" d="M44.9701 73.2686C49.9738 69.0142 51.2518 62.3016 47.8246 58.2755C44.3973 54.2495 37.5627 54.4347 32.559 58.6891C27.5553 62.9436 26.2773 69.6562 29.7045 73.6822C33.1318 77.7082 39.9664 77.523 44.9701 73.2686Z" fill="url(#paint1_linear_1_5936)"/>
<mask id="mask0_1_5936" style="mask-type:luminance" maskUnits="userSpaceOnUse" x="27" y="55" width="23" height="22">
<path d="M44.9692 73.2687C49.9729 69.0143 51.2509 62.3017 47.8237 58.2757C44.3964 54.2497 37.5618 54.4348 32.5581 58.6893C27.5544 62.9437 26.2764 69.6563 29.7036 73.6823C33.1309 77.7083 39.9655 77.5232 44.9692 73.2687Z" fill="white"/>
</mask>
<g mask="url(#mask0_1_5936)">
<path d="M52.9829 71.1919V69.0211H52.4948C52.0795 68.1954 51.4408 67.5026 50.6514 67.0215C49.8619 66.5403 48.9532 66.29 48.0286 66.2991C47.1061 66.3105 46.2055 66.5803 45.4289 67.0779C44.6523 67.5755 44.031 68.2808 43.6356 69.1138H43.1475V71.2845C43.1655 72.5931 43.7016 73.8411 44.6384 74.7554C45.5752 75.6697 46.8363 76.1757 48.1457 76.1627C49.4435 76.1346 50.6781 75.5975 51.5831 74.6675C52.4881 73.7375 52.9909 72.4891 52.9829 71.1919Z" fill="#D1DDE8"/>
<path d="M51.5095 72.5645C53.4404 70.6347 53.4404 67.5059 51.5095 65.5761C49.5785 63.6463 46.4478 63.6463 44.5168 65.5761C42.5859 67.5059 42.5859 70.6347 44.5168 72.5645C46.4478 74.4943 49.5785 74.4943 51.5095 72.5645Z" fill="#E7EDF4"/>
<path d="M43.1916 68.0106C43.11 68.3757 43.0707 68.7489 43.0745 69.1229C43.0787 69.4978 43.1262 69.871 43.216 70.2351L52.8415 70.1326C52.9225 69.7675 52.9618 69.3944 52.9587 69.0204C52.9519 68.6457 52.9044 68.2727 52.8171 67.9082L43.1916 68.0106Z" fill="white"/>
<path d="M44.8735 61.1564L42.8772 60.293L42.6771 60.7808C41.7538 60.8236 40.8611 61.1242 40.1001 61.6485C39.3392 62.1727 38.7405 62.8996 38.372 63.7467C38.0067 64.5948 37.8863 65.5282 38.0243 66.4412C38.1623 67.3541 38.5533 68.2103 39.1529 68.9127L38.9528 69.4005L40.9491 70.2639C41.5449 70.5215 42.1856 70.6591 42.8347 70.6691C43.4837 70.679 44.1283 70.561 44.7317 70.3218C45.335 70.0826 45.8853 69.7269 46.351 69.275C46.8168 68.8231 47.1888 68.2839 47.4459 67.6883C47.7098 67.0911 47.8526 66.4475 47.866 65.7948C47.8793 65.1421 47.763 64.4933 47.5238 63.8858C47.2845 63.2783 46.9272 62.7243 46.4722 62.2558C46.0173 61.7873 45.4739 61.4136 44.8735 61.1564Z" fill="#D1DDE8"/>
<path d="M45.4511 66.7901C44.929 67.9917 43.9511 68.9373 42.7322 69.4192C41.5133 69.9012 40.1529 69.8802 38.9495 69.3609C38.3539 69.1035 37.8149 68.7314 37.3632 68.2657C36.9116 67.8001 36.5562 67.2501 36.3173 66.6471C36.0784 66.0442 35.9608 65.4001 35.9711 64.7517C35.9813 64.1033 36.1193 63.4632 36.3771 62.8681C36.6342 62.2724 37.0063 61.7333 37.472 61.2814C37.9378 60.8295 38.4881 60.4738 39.0914 60.2346C39.6948 59.9954 40.3394 59.8774 40.9884 59.8873C41.6374 59.8972 42.2781 60.0349 42.8739 60.2924C44.0771 60.8134 45.0242 61.7902 45.5074 63.0085C45.9906 64.2267 45.9704 65.5868 45.4511 66.7901Z" fill="#E7EDF4"/>
<path d="M37.9785 68.8021C38.2812 69.0261 38.6088 69.2144 38.9547 69.3631C39.2998 69.5095 39.6599 69.6175 40.0286 69.6851L43.8505 60.8556C43.5466 60.6335 43.2192 60.4453 42.8743 60.2946C42.5292 60.1482 42.1691 60.0403 41.8004 59.9727L37.9785 68.8021Z" fill="white"/>
<path d="M40.8187 75.1322L40.3306 73.02L39.8425 73.137C39.2566 72.4222 38.4812 71.8867 37.6051 71.5916C36.7289 71.2966 35.7874 71.254 34.8882 71.4687C33.989 71.6817 33.168 72.1433 32.5189 72.8006C31.8698 73.458 31.4189 74.2845 31.2176 75.1859L30.7295 75.3029L31.2176 77.4152C31.3674 78.0463 31.6401 78.6418 32.0202 79.1675C32.4003 79.6933 32.8804 80.139 33.433 80.4792C33.9856 80.8194 34.5998 81.0475 35.2406 81.1504C35.8814 81.2532 36.5362 81.2289 37.1676 81.0787C38.4396 80.772 39.5382 79.974 40.2225 78.8594C40.9069 77.7447 41.1213 76.4045 40.8187 75.1322Z" fill="#D1DDE8"/>
<path d="M36.4201 78.9677C39.103 78.4586 40.8649 75.8724 40.3555 73.1911C39.8462 70.5098 37.2584 68.7489 34.5755 69.258C31.8927 69.767 30.1307 72.3533 30.6401 75.0345C31.1494 77.7158 33.7372 79.4767 36.4201 78.9677Z" fill="#E7EDF4"/>
<path d="M30.5686 74.1912C30.5676 74.5656 30.6102 74.9389 30.6955 75.3035C30.785 75.6677 30.9143 76.0211 31.0811 76.3571L40.4431 74.1327C40.444 73.7583 40.4014 73.3851 40.3161 73.0205C40.2266 72.6562 40.0973 72.3029 39.9305 71.9668L30.5686 74.1912Z" fill="white"/>
</g>
<path d="M49.6165 50.8158L49.1284 48.7035L48.6403 48.8206C48.0544 48.1058 47.2791 47.5703 46.4029 47.2752C45.5268 46.9802 44.5853 46.9376 43.686 47.1523C42.7868 47.3661 41.9655 47.8278 41.3158 48.485C40.666 49.1421 40.2138 49.9682 40.0106 50.8694L39.5225 50.9865L40.0106 53.0988C40.1603 53.7299 40.433 54.3254 40.8132 54.8511C41.1933 55.3768 41.6734 55.8226 42.226 56.1628C42.7785 56.503 43.3928 56.7311 44.0336 56.8339C44.6744 56.9368 45.3292 56.9125 45.9606 56.7623C47.2342 56.4579 48.3348 55.6605 49.0203 54.5454C49.7059 53.4303 49.9203 52.0888 49.6165 50.8158Z" fill="#D1DDE8"/>
<path d="M45.4476 54.6505C44.1738 54.9509 42.8328 54.7338 41.7191 54.0469C40.6053 53.36 39.8098 52.2595 39.5073 50.987C39.357 50.356 39.3326 49.7015 39.4355 49.0611C39.5385 48.4207 39.7667 47.8068 40.1071 47.2546C40.4475 46.7023 40.8936 46.2225 41.4196 45.8426C41.9457 45.4627 42.5415 45.1902 43.173 45.0405C43.8047 44.8903 44.4598 44.8658 45.1009 44.9686C45.7421 45.0715 46.3567 45.2995 46.9097 45.6396C47.4626 45.9798 47.9431 46.4255 48.3238 46.9513C48.7044 47.4771 48.9776 48.0727 49.1279 48.704C49.278 49.336 49.3018 49.9914 49.1979 50.6326C49.0941 51.2738 48.8645 51.8882 48.5226 52.4406C48.1808 52.993 47.7332 53.4726 47.2055 53.8518C46.6778 54.231 46.0804 54.5024 45.4476 54.6505Z" fill="#E7EDF4"/>
<path d="M39.3662 49.8748C39.3696 50.2493 39.4138 50.6222 39.498 50.9871C39.5846 51.3507 39.714 51.7027 39.8836 52.0359L49.2455 49.8163C49.2467 49.4419 49.2041 49.0686 49.1186 48.7041C49.0277 48.3402 48.8985 47.987 48.7331 47.6504L39.3662 49.8748Z" fill="white"/>
<path d="M37.6624 33.7334L37.1743 31.6212L36.6861 31.7383C36.0988 31.0253 35.3233 30.4911 34.4476 30.1962C33.572 29.9013 32.6311 29.8576 31.7318 30.0699C30.8325 30.2837 30.0113 30.7455 29.3616 31.4026C28.7118 32.0597 28.2597 32.8859 28.0564 33.7871L27.5683 33.9042L28.0564 36.0164C28.3589 37.2913 29.1557 38.3939 30.2714 39.0818C31.3872 39.7697 32.7307 39.9866 34.0064 39.6848C35.2804 39.3793 36.381 38.5809 37.0665 37.4651C37.7519 36.3492 37.9663 35.0071 37.6624 33.7334Z" fill="#D1DDE8"/>
<path d="M33.4944 37.5723C32.2187 37.8742 30.8752 37.6573 29.7594 36.9693C28.6437 36.2814 27.8469 35.1788 27.5444 33.904C27.3941 33.273 27.3698 32.6185 27.4727 31.9781C27.5756 31.3377 27.8038 30.7238 28.1442 30.1715C28.4846 29.6193 28.9306 29.1395 29.4567 28.7596C29.9827 28.3797 30.5785 28.1071 31.2101 27.9575C32.4858 27.6554 33.8292 27.8715 34.9457 28.5584C36.0621 29.2452 36.8603 30.3467 37.165 31.621C37.4657 32.8965 37.2483 34.2391 36.5603 35.3547C35.8722 36.4703 34.7698 37.2677 33.4944 37.5723Z" fill="#E7EDF4"/>
<path d="M27.4121 32.7899C27.415 33.1643 27.4592 33.5373 27.5439 33.9021C27.6296 34.2675 27.7591 34.6213 27.9295 34.9558L37.2914 32.7313C37.292 32.357 37.2494 31.9838 37.1645 31.6191C37.0736 31.2568 36.9444 30.9053 36.779 30.5703L27.4121 32.7899Z" fill="white"/>
<path d="M29.5685 45.5663L27.5233 43.4297L26.9669 44.059C21.9394 42.176 15.4524 44.6102 11.5134 50.2201C8.3846 54.6739 7.68173 59.9764 9.26809 63.9863L8.69698 64.6253L11.733 67.6498C12.0417 67.9332 12.3677 68.1971 12.7092 68.44C17.8881 72.0743 25.7466 69.8108 30.2812 63.3814C34.6253 57.1715 34.3618 50.5225 29.5685 45.5663Z" fill="#D1DDE8"/>
<path d="M17.3372 70.1257C16.9336 70.0901 16.5326 70.0299 16.1365 69.9452L8.63912 61.7206L7.10645 60.0425L7.66778 59.5547L8.48289 60.4474L17.3372 70.1257Z" fill="#E7EDF4"/>
<path d="M20.3725 69.9959C20.0747 70.0447 19.7623 70.0886 19.4597 70.1179L10.2686 60.0347L10.825 59.5469L20.3725 69.9959Z" fill="#E7EDF4"/>
<path d="M22.9107 69.2886C22.652 69.391 22.3934 69.4788 22.1298 69.5617L13.4414 60.0347L14.0027 59.5469L22.9107 69.2886Z" fill="#E7EDF4"/>
<path d="M25.079 68.2203C24.8545 68.352 24.6251 68.4837 24.3957 68.6008L16.5859 60.0347L17.1521 59.5469L25.079 68.2203Z" fill="#E7EDF4"/>
<path d="M27.0072 66.8758C26.812 67.0368 26.6119 67.1929 26.4068 67.3637L19.7441 60.0464L20.3055 59.5586L27.0072 66.8758Z" fill="#E7EDF4"/>
<path d="M28.7148 65.2787C28.5439 65.469 28.3682 65.6446 28.1827 65.8202L22.9111 60.0347L23.4774 59.5469L28.7148 65.2787Z" fill="#E7EDF4"/>
<path d="M30.2329 63.4065C30.0816 63.6162 29.9303 63.826 29.7448 64.026L23.3018 56.9527L23.8581 56.4648L30.2329 63.4065Z" fill="#E7EDF4"/>
<path d="M31.5508 61.281C31.4287 61.5152 31.297 61.7688 31.1603 61.9737L23.3018 53.3589L23.8582 52.8418L31.5508 61.281Z" fill="#E7EDF4"/>
<path d="M32.6051 58.8552C32.5123 59.1235 32.4147 59.3918 32.3025 59.6552L23.3018 49.7866L23.8581 49.2988L32.6051 58.8552Z" fill="#E7EDF4"/>
<path d="M33.264 56.0059C33.225 56.3229 33.1762 56.6449 33.1127 56.9815L23.3018 46.2495L23.8582 45.7617L33.264 56.0059Z" fill="#E7EDF4"/>
<path d="M33.3216 53.6258L24.0475 43.4548L23.3057 42.6402L23.8621 42.1523L25.1898 43.6158L33.1606 52.3184C33.2433 52.7502 33.2971 53.1869 33.3216 53.6258Z" fill="#E7EDF4"/>
<path d="M27.4193 60.5566C31.9355 54.1298 31.4011 45.9751 26.2256 42.3426C21.0502 38.7101 13.1936 40.9754 8.67734 47.4022C4.16112 53.8291 4.69553 61.9838 9.87097 65.6163C15.0464 69.2487 22.9031 66.9835 27.4193 60.5566Z" fill="#E7EDF4"/>
<path d="M20.3986 42.3188C22.1377 42.292 23.8425 42.8032 25.2797 43.7823C27.4371 45.2994 28.7355 47.7775 28.9307 50.763C29.0751 53.9629 28.1287 57.1171 26.2461 59.7095C23.6543 63.4023 19.6518 65.695 15.8055 65.695C14.0632 65.7129 12.3582 65.1915 10.9244 64.2023C6.43375 61.051 5.99933 53.9045 9.94814 48.2751C12.54 44.5872 16.5425 42.2945 20.3888 42.2945M20.3888 41.8066C16.5132 41.8066 12.335 44.0311 9.54792 47.997C5.43315 53.8508 5.91637 61.29 10.6364 64.5828C12.1459 65.6551 13.9534 66.2283 15.8055 66.2219C19.681 66.2219 23.8593 63.9925 26.6464 60.0315C30.766 54.1777 30.2779 46.7336 25.5579 43.4457C24.0427 42.3996 22.2401 41.849 20.3986 41.8701L20.3888 41.8066Z" fill="white"/>
<path d="M133.223 115.642L65.0687 104.017C64.2101 103.871 63.4382 103.407 62.9071 102.717C62.376 102.027 62.1248 101.162 62.2035 100.295L70.8528 3.15629C70.93 2.28944 71.3309 1.48343 71.9758 0.898605C72.6207 0.313779 73.4622 -0.0069918 74.333 0.000115633L143.474 0.590377C143.952 0.59522 144.424 0.698857 144.86 0.894786C145.296 1.09071 145.686 1.3747 146.007 1.72886C146.328 2.08302 146.572 2.49971 146.724 2.95273C146.876 3.40574 146.933 3.88529 146.89 4.3612L137.27 112.535C137.228 113.012 137.087 113.476 136.856 113.896C136.625 114.316 136.31 114.684 135.929 114.976C135.549 115.268 135.112 115.478 134.646 115.593C134.18 115.707 133.696 115.724 133.223 115.642Z" fill="#0FB4A5"/>
<path d="M132.902 112.198L65.9482 100.778L74.1778 8.40039L142.098 8.98089L132.902 112.198Z" fill="#E7EDF4"/>
<path style="mix-blend-mode:multiply" d="M132.902 112.198L65.9482 100.778L74.1778 8.40039L142.098 8.98089L132.902 112.198Z" fill="url(#paint2_linear_1_5936)"/>
<path d="M142.098 8.98089L74.1628 8.40039C74.1628 8.40039 65.1523 84.4461 59.3877 89.3243L127.235 104.12L142.098 8.98089Z" fill="white"/>
<path d="M59.402 89.325C59.402 89.325 51.9485 85.7346 52.6123 75.4905L113.138 89.6908C113.138 89.6908 125.648 114.394 128.225 97.8813L127.249 104.116L59.402 89.325Z" fill="#E7EDF4"/>
<path d="M96.9746 6.59064C97.896 6.40077 98.4889 5.50033 98.299 4.57945C98.109 3.65857 97.208 3.06596 96.2866 3.25582C95.3651 3.44569 94.7722 4.34614 94.9622 5.26702C95.1521 6.1879 96.0531 6.78051 96.9746 6.59064Z" fill="#008479"/>
<path d="M121.311 6.50542C122.229 6.29999 122.807 5.38965 122.601 4.47211C122.396 3.55457 121.485 2.97729 120.567 3.18272C119.649 3.38815 119.071 4.2985 119.276 5.21604C119.482 6.13358 120.393 6.71085 121.311 6.50542Z" fill="#008479"/>
<path d="M96.6167 4.88672L96.0749 10.9405C96.0545 11.169 96.0821 11.3993 96.1558 11.6165C96.2295 11.8338 96.3478 12.0333 96.5031 12.2022C96.6584 12.3712 96.8472 12.5059 97.0576 12.5978C97.2679 12.6896 97.4951 12.7366 97.7247 12.7357H105.818L105.842 12.4479C105.88 12.0169 106.076 11.6153 106.394 11.3213C106.711 11.0273 107.127 10.862 107.56 10.8576H108.331C108.572 10.8554 108.811 10.9034 109.032 10.9986C109.253 11.0937 109.452 11.2339 109.616 11.4101C109.78 11.5864 109.905 11.7949 109.984 12.0223C110.063 12.2496 110.093 12.491 110.074 12.7308H118.728C119.141 12.7312 119.538 12.5772 119.843 12.2991C120.147 12.021 120.336 11.6389 120.373 11.2283L120.939 4.88672" stroke="#008479" stroke-width="3" stroke-linejoin="round"/>
<path d="M83.2021 23.6113L126.224 24.7431" stroke="#E7EDF4" stroke-width="3" stroke-miterlimit="10" stroke-linecap="round"/>
<path d="M82.627 30.0625L125.649 31.1942" stroke="#E7EDF4" stroke-width="3" stroke-miterlimit="10" stroke-linecap="round"/>
<path d="M81.5682 36.4745L124.59 37.6062" stroke="#E7EDF4" stroke-width="3" stroke-miterlimit="10" stroke-linecap="round"/>
<path d="M80.5029 42.8828L123.525 44.0145" stroke="#E7EDF4" stroke-width="3" stroke-miterlimit="10" stroke-linecap="round"/>
<path d="M79.4434 49.2949L122.465 50.4267" stroke="#E7EDF4" stroke-width="3" stroke-miterlimit="10" stroke-linecap="round"/>
<path d="M100.262 65.3678C100.102 67.1629 99.235 68.821 97.8518 69.9774C96.4687 71.1337 94.6826 71.6936 92.8864 71.5338C91.9972 71.4547 91.1323 71.2013 90.3412 70.788C89.5501 70.3747 88.8482 69.8096 88.2757 69.1251C87.7032 68.4406 87.2712 67.65 87.0046 66.7986C86.7379 65.9471 86.6417 65.0515 86.7216 64.1629C86.8001 63.2745 87.0531 62.4102 87.4662 61.6196C87.8792 60.829 88.4442 60.1275 89.1287 59.5553C89.8133 58.983 90.604 58.5513 91.4557 58.2847C92.3073 58.0182 93.2031 57.922 94.092 58.0018C94.9812 58.0803 95.8461 58.3332 96.6375 58.7459C97.4288 59.1586 98.131 59.7232 98.704 60.4072C99.277 61.0913 99.7094 61.8815 99.9767 62.7326C100.244 63.5838 100.341 64.4792 100.262 65.3678Z" fill="#E7EDF4"/>
<path d="M80.9287 69.0353C79.9838 67.8697 79.2909 66.521 78.8935 65.0744C78.4961 63.6278 78.403 62.1146 78.62 60.6302C78.7273 59.9131 79.0153 59.0887 79.7182 58.8936C80.7481 58.596 81.4852 59.8692 81.8171 60.8741C82.2418 62.1864 82.6713 63.4986 83.0959 64.8108C83.1489 65.0687 83.2904 65.3 83.4962 65.4645C84.5358 66.1182 85.0288 63.1278 86.171 63.5766C86.7958 63.8205 86.6005 64.7815 86.9715 65.3377C87.3913 65.9669 88.3577 65.8596 89.0215 65.4938C89.6854 65.1279 90.276 64.5767 91.0228 64.5181C91.7696 64.4596 92.4578 64.8401 93.1754 64.762C94.4298 64.6254 95.4109 63.1181 96.6263 63.4596" stroke="#D1DDE8" stroke-width="3" stroke-miterlimit="10" stroke-linecap="round"/>
<path d="M92.9978 105.987L82.4595 101.924C81.5378 101.57 80.513 101.596 79.6105 101.996C78.7079 102.397 78.0016 103.14 77.6468 104.061C77.2922 104.982 77.3182 106.006 77.7191 106.908C78.1201 107.81 78.863 108.516 79.7847 108.87L90.3425 112.929C91.2643 113.282 92.2885 113.255 93.1907 112.855C94.0929 112.454 94.7994 111.713 95.1552 110.792C95.3302 110.335 95.4131 109.848 95.3993 109.359C95.3856 108.87 95.2753 108.389 95.0749 107.942C94.8744 107.496 94.5878 107.093 94.2313 106.758C93.8749 106.422 93.4557 106.161 92.9978 105.987Z" fill="white"/>
<path d="M92.9991 105.989L87.7178 103.955L85.043 110.902L90.3243 112.931C90.7804 113.106 91.2666 113.19 91.7551 113.178C92.2437 113.166 92.725 113.058 93.1717 112.859C93.6184 112.661 94.0217 112.377 94.3585 112.023C94.6952 111.669 94.959 111.252 95.1346 110.797C95.3102 110.341 95.3943 109.855 95.382 109.367C95.3698 108.878 95.2614 108.397 95.0631 107.951C94.8648 107.505 94.5805 107.102 94.2264 106.765C93.8722 106.428 93.4552 106.165 92.9991 105.989Z" fill="#008479"/>
<path d="M108.761 92.9785L97.8763 96.0566C97.406 96.1894 96.9665 96.4135 96.5829 96.7161C96.1994 97.0187 95.8792 97.3938 95.6408 97.8201C95.4024 98.2464 95.2503 98.7155 95.1933 99.2005C95.1364 99.6856 95.1756 100.177 95.3088 100.647C95.5772 101.596 96.2118 102.4 97.073 102.882C97.9343 103.364 98.9517 103.485 99.9019 103.218L110.772 100.14C111.722 99.8714 112.527 99.2373 113.009 98.3766C113.491 97.5158 113.612 96.4989 113.344 95.5493C113.076 94.6021 112.443 93.7999 111.584 93.3181C110.725 92.8362 109.71 92.7142 108.761 92.9785Z" fill="white"/>
<path d="M108.76 92.9785L103.317 94.5151L105.343 101.676L110.771 100.14C111.721 99.8714 112.525 99.2373 113.008 98.3765C113.49 97.5158 113.611 96.4989 113.343 95.5493C113.075 94.6021 112.442 93.7999 111.583 93.3181C110.724 92.8362 109.709 92.7142 108.76 92.9785Z" fill="#008479"/>
<path d="M52.6023 8.59409H48.8537V4.84766H44.6754V8.59409H40.9219V12.7747H44.6754V16.5211H48.8537V12.7747H52.6023V8.59409Z" fill="#0FB4A5"/>
<path d="M63.2482 23.6558H60.7003V21.1094H57.8643V23.6558H55.3164V26.49H57.8643V29.0364H60.7003V26.49H63.2482V23.6558Z" fill="#008479"/>
<path d="M148.541 92.7348L166.371 40.8847C166.523 40.3285 166.448 39.7349 166.164 39.2333C165.88 38.7317 165.409 38.3627 164.853 38.2066L134.883 27.9137C134.349 27.6958 133.75 27.6982 133.218 27.9203C132.686 28.1424 132.263 28.5663 132.043 29.0991L114.212 80.9442C114.059 81.5005 114.133 82.0947 114.417 82.5967C114.702 83.0986 115.174 83.4674 115.73 83.6223L145.7 93.9153C146.233 94.1335 146.832 94.1318 147.364 93.9106C147.896 93.6894 148.319 93.2667 148.541 92.7348Z" fill="#008479"/>
<g style="mix-blend-mode:multiply" opacity="0.6">
<path d="M143.602 37.4405L136.768 35.1185C136.473 35.0181 136.16 34.9769 135.848 34.9973C135.536 35.0177 135.232 35.0993 134.951 35.2375C134.671 35.3757 134.421 35.5677 134.215 35.8026C134.009 36.0375 133.852 36.3106 133.752 36.6064C133.548 37.1996 133.587 37.8495 133.862 38.4136C134.136 38.9777 134.623 39.4102 135.216 39.6162L142.05 41.9382C142.644 42.1436 143.295 42.1048 143.861 41.8304C144.427 41.556 144.86 41.0684 145.066 40.4748C145.17 40.1795 145.215 39.8666 145.198 39.554C145.18 39.2414 145.101 38.9354 144.965 38.6534C144.829 38.3714 144.639 38.1191 144.405 37.911C144.171 37.7028 143.898 37.543 143.602 37.4405Z" fill="#008479"/>
</g>
<g style="mix-blend-mode:multiply" opacity="0.6">
<path d="M158.933 42.7139L152.099 40.3919C151.505 40.1866 150.854 40.2253 150.288 40.4997C149.722 40.7741 149.289 41.2617 149.083 41.8554C148.88 42.4493 148.92 43.0993 149.194 43.6639C149.468 44.2284 149.955 44.662 150.547 44.8701L157.381 47.1921C157.974 47.3946 158.624 47.3545 159.188 47.0803C159.752 46.8062 160.185 46.3204 160.392 45.7286C160.598 45.1354 160.56 44.4849 160.286 43.9197C160.013 43.3545 159.526 42.9209 158.933 42.7139Z" fill="#008479"/>
</g>
<g style="mix-blend-mode:multiply" opacity="0.6">
<path d="M140.819 45.5269L133.986 43.2049C133.392 43.001 132.742 43.0405 132.177 43.3148C131.613 43.5891 131.18 44.0758 130.974 44.6683C130.769 45.2622 130.807 45.9133 131.082 46.4786C131.356 47.0438 131.844 47.4771 132.438 47.683L139.272 50.0051C139.866 50.2091 140.517 50.1697 141.082 49.8954C141.648 49.6212 142.081 49.1345 142.288 48.5416C142.491 47.947 142.45 47.2965 142.175 46.7318C141.9 46.1672 141.413 45.7341 140.819 45.5269Z" fill="#008479"/>
</g>
<g style="mix-blend-mode:multiply" opacity="0.6">
<path d="M156.164 50.7906L149.331 48.4686C148.736 48.2646 148.086 48.304 147.52 48.5782C146.955 48.8525 146.521 49.3392 146.314 49.9321C146.11 50.5253 146.15 51.1752 146.424 51.7393C146.699 52.3034 147.186 52.7359 147.778 52.9419L154.612 55.2639C155.206 55.4693 155.858 55.4305 156.423 55.1561C156.989 54.8817 157.422 54.3941 157.629 53.8005C157.83 53.2071 157.789 52.5584 157.515 51.995C157.241 51.4315 156.755 50.9988 156.164 50.7906Z" fill="#008479"/>
</g>
<g style="mix-blend-mode:multiply" opacity="0.6">
<path d="M138.041 53.6104L131.208 51.2884C130.613 51.083 129.962 51.1218 129.396 51.3962C128.831 51.6706 128.397 52.1582 128.191 52.7519C127.988 53.3458 128.028 53.9958 128.303 54.5604C128.577 55.1249 129.063 55.5584 129.655 55.7666L136.489 58.0886C137.086 58.2901 137.74 58.2467 138.305 57.9678C138.87 57.6889 139.302 57.1973 139.506 56.6007C139.702 56.01 139.659 55.3656 139.385 54.8064C139.111 54.2471 138.629 53.8177 138.041 53.6104Z" fill="#008479"/>
</g>
<g style="mix-blend-mode:multiply" opacity="0.6">
<path d="M153.374 58.8746L146.54 56.5525C145.947 56.3487 145.297 56.3882 144.732 56.6625C144.168 56.9368 143.735 57.4235 143.529 58.016C143.323 58.6098 143.362 59.2609 143.637 59.8262C143.911 60.3915 144.399 60.8247 144.993 61.0307L151.827 63.3527C152.421 63.5567 153.072 63.5173 153.637 63.2431C154.202 62.9689 154.636 62.4821 154.843 61.8893C155.046 61.2947 155.005 60.6442 154.73 60.0795C154.455 59.5148 153.967 59.0817 153.374 58.8746Z" fill="#008479"/>
</g>
<g style="mix-blend-mode:multiply" opacity="0.6">
<path d="M135.176 61.9483L128.342 59.6263C127.748 59.4209 127.097 59.4597 126.531 59.7341C125.965 60.0085 125.532 60.4961 125.326 61.0898C125.123 61.6837 125.163 62.3337 125.437 62.8982C125.712 63.4628 126.198 63.8963 126.79 64.1045L133.624 66.4265C134.217 66.629 134.867 66.5888 135.431 66.3147C135.995 66.0406 136.428 65.5547 136.635 64.963C136.738 64.6693 136.782 64.3583 136.764 64.0477C136.746 63.7372 136.667 63.4332 136.531 63.1532C136.396 62.8732 136.206 62.6226 135.974 62.4159C135.741 62.2091 135.47 62.0502 135.176 61.9483Z" fill="#008479"/>
</g>
<g style="mix-blend-mode:multiply" opacity="0.6">
<path d="M150.507 67.197L143.674 64.875C143.079 64.671 142.428 64.7104 141.863 64.9846C141.298 65.2588 140.864 65.7456 140.657 66.3384C140.454 66.9324 140.494 67.5823 140.768 68.1469C141.043 68.7115 141.529 69.145 142.121 69.3531L148.955 71.6752C149.548 71.879 150.199 71.8395 150.763 71.5652C151.328 71.2909 151.76 70.8042 151.966 70.2117C152.172 69.6185 152.134 68.9679 151.86 68.4028C151.587 67.8376 151.1 67.404 150.507 67.197Z" fill="#008479"/>
</g>
<g style="mix-blend-mode:multiply" opacity="0.6">
<path d="M132.336 70.2107L125.503 67.8887C124.908 67.6846 124.257 67.724 123.692 67.9983C123.127 68.2725 122.693 68.7593 122.486 69.3521C122.282 69.9453 122.322 70.5952 122.596 71.1593C122.871 71.7235 123.358 72.1559 123.95 72.3619L130.784 74.6839C131.378 74.8893 132.03 74.8506 132.595 74.5762C133.161 74.3017 133.594 73.8141 133.8 73.2205C134.003 72.6272 133.963 71.9779 133.689 71.4141C133.414 70.8504 132.928 70.4178 132.336 70.2107Z" fill="#008479"/>
</g>
<g style="mix-blend-mode:multiply" opacity="0.6">
<path d="M147.666 75.4893L140.833 73.1673C140.238 72.9619 139.587 73.0007 139.021 73.2751C138.456 73.5495 138.022 74.0371 137.816 74.6308C137.613 75.2247 137.653 75.8747 137.928 76.4393C138.202 77.0038 138.688 77.4373 139.28 77.6455L146.114 79.9675C146.41 80.068 146.723 80.1092 147.034 80.0887C147.346 80.0683 147.651 79.9867 147.931 79.8485C148.211 79.7103 148.461 79.5183 148.667 79.2834C148.873 79.0485 149.03 78.7754 149.131 78.4797C149.329 77.8889 149.286 77.244 149.012 76.6844C148.738 76.1248 148.254 75.6955 147.666 75.4893Z" fill="#008479"/>
</g>
<g style="mix-blend-mode:multiply" opacity="0.6">
<path d="M129.553 78.2945L122.719 75.9725C122.125 75.7686 121.475 75.8081 120.911 76.0824C120.346 76.3567 119.914 76.8434 119.707 77.4359C119.502 78.0298 119.541 78.6809 119.815 79.2461C120.09 79.8114 120.578 80.2446 121.172 80.4506L128.005 82.7726C128.6 82.9767 129.25 82.9373 129.816 82.663C130.381 82.3888 130.815 81.902 131.022 81.3092C131.226 80.7146 131.186 80.0636 130.91 79.4985C130.635 78.9335 130.147 78.5006 129.553 78.2945Z" fill="#008479"/>
</g>
<g style="mix-blend-mode:multiply" opacity="0.6">
<path d="M144.891 83.5589L138.057 81.2369C137.464 81.0344 136.814 81.0745 136.25 81.3487C135.686 81.6228 135.253 82.1086 135.046 82.7004C134.842 83.2936 134.881 83.9434 135.156 84.5076C135.43 85.0717 135.917 85.5042 136.51 85.7102L143.344 88.0322C143.938 88.2376 144.589 88.1988 145.155 87.9244C145.721 87.65 146.154 87.1624 146.36 86.5687C146.561 85.9748 146.52 85.3255 146.245 84.762C145.97 84.1984 145.483 83.7661 144.891 83.5589Z" fill="#008479"/>
</g>
<path d="M144.056 36.126L137.223 33.804C136.628 33.5987 135.977 33.6374 135.411 33.9118C134.846 34.1863 134.412 34.6738 134.206 35.2675C134.002 35.8614 134.041 36.5119 134.316 37.0768C134.59 37.6418 135.077 38.0751 135.67 38.2822L142.504 40.6042C143.098 40.8082 143.749 40.7688 144.314 40.4946C144.88 40.2204 145.313 39.7336 145.52 39.1408C145.726 38.5469 145.687 37.8958 145.413 37.3305C145.138 36.7652 144.65 36.332 144.056 36.126Z" fill="white"/>
<path style="mix-blend-mode:multiply" d="M144.114 39.2347L135.274 36.2346C134.831 36.0856 134.442 35.809 134.156 35.4395C134 36.0214 134.071 36.6409 134.355 37.1725C134.638 37.7042 135.114 38.1082 135.684 38.3029L142.518 40.6249C143.089 40.8181 143.712 40.787 144.262 40.5379C144.811 40.2888 145.245 39.8404 145.476 39.2835C145.027 39.4027 144.553 39.3857 144.114 39.2347Z" fill="url(#paint3_linear_1_5936)"/>
<path d="M159.386 41.391L152.552 39.069C151.958 38.8663 151.308 38.9063 150.743 39.1804C150.178 39.4545 149.744 39.9404 149.536 40.5324C149.333 41.1264 149.373 41.7764 149.647 42.3409C149.922 42.9055 150.408 43.339 151 43.5472L157.834 45.8692C158.427 46.073 159.078 46.0335 159.642 45.7592C160.207 45.4849 160.639 44.9982 160.845 44.4057C161.05 43.8124 161.011 43.1625 160.738 42.5976C160.464 42.0328 159.978 41.599 159.386 41.391Z" fill="white"/>
<path style="mix-blend-mode:multiply" d="M159.445 44.5032L150.605 41.4983C150.163 41.348 149.774 41.0716 149.487 40.7031C149.331 41.2851 149.402 41.9046 149.686 42.4362C149.969 42.9678 150.445 43.3719 151.015 43.5666L157.849 45.8886C158.416 46.0757 159.033 46.0413 159.577 45.7925C160.12 45.5437 160.549 45.0988 160.777 44.5471C160.338 44.662 159.875 44.6468 159.445 44.5032Z" fill="url(#paint4_linear_1_5936)"/>
<path d="M141.229 44.3371L134.396 42.0102C133.802 41.8077 133.152 41.8478 132.588 42.122C132.024 42.3961 131.591 42.882 131.384 43.4737C131.282 43.7674 131.24 44.0782 131.258 44.3885C131.277 44.6987 131.356 45.0023 131.492 45.2818C131.628 45.5613 131.818 45.8113 132.051 46.0175C132.283 46.2237 132.554 46.382 132.848 46.4835L139.682 48.8104C140.276 49.0131 140.927 48.973 141.491 48.699C142.056 48.4249 142.49 47.939 142.698 47.3469C142.901 46.753 142.86 46.1032 142.585 45.5393C142.309 44.9754 141.822 44.5432 141.229 44.3371Z" fill="white"/>
<path style="mix-blend-mode:multiply" d="M141.292 47.4446L132.448 44.4446C132.005 44.2953 131.617 44.0166 131.335 43.6445C131.179 44.2265 131.25 44.846 131.533 45.3776C131.817 45.9092 132.292 46.3133 132.863 46.508L139.696 48.8349C140.268 49.028 140.891 48.9969 141.44 48.7478C141.99 48.4987 142.423 48.0503 142.654 47.4934C142.205 47.61 141.732 47.5931 141.292 47.4446Z" fill="url(#paint5_linear_1_5936)"/>
<path d="M156.566 49.6013L149.732 47.2793C149.138 47.0753 148.487 47.1147 147.922 47.3889C147.357 47.6631 146.923 48.1499 146.716 48.7427C146.512 49.3366 146.551 49.9872 146.825 50.5521C147.1 51.117 147.587 51.5504 148.18 51.7574L155.014 54.0795C155.608 54.2822 156.258 54.2421 156.823 53.9681C157.388 53.694 157.822 53.2081 158.03 52.616C158.233 52.0221 158.193 51.3721 157.919 50.8075C157.645 50.2429 157.158 49.8094 156.566 49.6013Z" fill="white"/>
<path style="mix-blend-mode:multiply" d="M156.623 52.7093L147.779 49.7092C147.338 49.5589 146.951 49.2824 146.666 48.9141C146.51 49.496 146.581 50.1155 146.864 50.6471C147.148 51.1788 147.623 51.5828 148.194 51.7775L155.027 54.0996C155.599 54.2927 156.222 54.2616 156.771 54.0125C157.321 53.7634 157.755 53.315 157.985 52.7581C157.537 52.8773 157.062 52.8603 156.623 52.7093Z" fill="url(#paint6_linear_1_5936)"/>
<path d="M138.407 52.5629L131.574 50.2409C130.979 50.0382 130.329 50.0782 129.764 50.3523C129.199 50.6263 128.765 51.1123 128.557 51.7043C128.355 52.2976 128.395 52.9469 128.669 53.5107C128.943 54.0745 129.429 54.5071 130.021 54.7142L136.855 57.0362C137.449 57.2402 138.1 57.2008 138.665 56.9266C139.231 56.6523 139.664 56.1656 139.872 55.5727C140.073 54.9794 140.032 54.3307 139.758 53.7672C139.484 53.2038 138.999 52.7711 138.407 52.5629Z" fill="white"/>
<path style="mix-blend-mode:multiply" d="M138.466 55.6556L129.627 52.6506C129.185 52.5016 128.798 52.2248 128.514 51.8555C128.356 52.4374 128.427 53.0574 128.711 53.5894C128.994 54.1213 129.47 54.5252 130.042 54.719L136.875 57.041C137.446 57.2344 138.069 57.204 138.618 56.9558C139.167 56.7077 139.601 56.2604 139.833 55.7043C139.382 55.8211 138.907 55.8041 138.466 55.6556Z" fill="url(#paint7_linear_1_5936)"/>
<path d="M153.725 57.8114L146.892 55.4894C146.598 55.3878 146.287 55.345 145.977 55.3636C145.666 55.3822 145.362 55.4617 145.083 55.5976C144.803 55.7335 144.553 55.9231 144.347 56.1557C144.14 56.3882 143.982 56.6591 143.88 56.9529C143.675 57.5467 143.714 58.1978 143.988 58.7631C144.263 59.3284 144.751 59.7616 145.345 59.9676L152.178 62.2896C152.772 62.4923 153.423 62.4522 153.988 62.1782C154.553 61.9041 154.986 61.4182 155.195 60.8261C155.399 60.2316 155.359 59.5805 155.083 59.0155C154.808 58.4505 154.32 58.0175 153.725 57.8114Z" fill="white"/>
<path style="mix-blend-mode:multiply" d="M153.802 60.9202L144.938 57.9299C144.497 57.7809 144.109 57.5041 143.825 57.1348C143.669 57.7167 143.74 58.3362 144.024 58.8678C144.307 59.3995 144.783 59.8035 145.353 59.9982L152.187 62.3203C152.758 62.5134 153.381 62.4823 153.931 62.2332C154.48 61.9841 154.914 61.5357 155.145 60.9788C154.701 61.0909 154.234 61.0706 153.802 60.9202Z" fill="url(#paint8_linear_1_5936)"/>
<path d="M135.587 60.7523L128.754 58.4303C128.16 58.2276 127.509 58.2677 126.944 58.5417C126.379 58.8158 125.946 59.3017 125.737 59.8938C125.533 60.4877 125.573 61.1382 125.847 61.7031C126.121 62.2681 126.609 62.7014 127.202 62.9085L134.035 65.2305C134.629 65.4344 135.279 65.3948 135.844 65.1205C136.408 64.8462 136.841 64.3595 137.047 63.767C137.253 63.1738 137.215 62.5233 136.941 61.9581C136.667 61.3929 136.181 60.9593 135.587 60.7523Z" fill="white"/>
<path style="mix-blend-mode:multiply" d="M135.664 63.8636L126.804 60.8537C126.363 60.7047 125.976 60.428 125.692 60.0586C125.533 60.6406 125.603 61.2611 125.887 61.7934C126.171 62.3256 126.647 62.7294 127.219 62.9221L134.053 65.2441C134.624 65.4372 135.248 65.4061 135.797 65.157C136.346 64.9079 136.78 64.4595 137.011 63.9026C136.568 64.0212 136.099 64.0076 135.664 63.8636Z" fill="url(#paint9_linear_1_5936)"/>
<path d="M150.917 66.0222L144.083 63.6953C143.486 63.4938 142.833 63.5372 142.267 63.8161C141.702 64.095 141.27 64.5867 141.067 65.1832C140.864 65.7765 140.904 66.4258 141.179 66.9895C141.453 67.5533 141.939 67.9859 142.531 68.193L149.365 70.5199C149.962 70.7213 150.614 70.6777 151.179 70.3988C151.743 70.1198 152.174 69.6282 152.376 69.0321C152.582 68.4395 152.544 67.7896 152.27 67.2252C151.996 66.6608 151.51 66.2281 150.917 66.0222Z" fill="white"/>
<path style="mix-blend-mode:multiply" d="M150.976 69.1477L142.136 66.1477C141.694 65.9984 141.306 65.7197 141.024 65.3477C140.866 65.9296 140.937 66.5496 141.22 67.0816C141.504 67.6135 141.98 68.0174 142.551 68.2111L149.385 70.538C149.956 70.7312 150.58 70.7001 151.129 70.451C151.678 70.2019 152.112 69.7534 152.343 69.1965C151.892 69.3133 151.417 69.2963 150.976 69.1477Z" fill="url(#paint10_linear_1_5936)"/>
<path d="M132.766 68.9627L125.933 66.6407C125.338 66.4367 124.687 66.4761 124.122 66.7503C123.557 67.0246 123.123 67.5113 122.916 68.1042C122.712 68.6981 122.751 69.3486 123.026 69.9135C123.3 70.4785 123.787 70.9118 124.38 71.1189L131.214 73.4409C131.808 73.6436 132.459 73.6036 133.023 73.3295C133.588 73.0554 134.022 72.5695 134.23 71.9775C134.435 71.3836 134.395 70.733 134.121 70.1681C133.846 69.6032 133.359 69.1698 132.766 68.9627Z" fill="white"/>
<path style="mix-blend-mode:multiply" d="M132.824 72.0765L123.984 69.0764C123.542 68.9261 123.153 68.6497 122.866 68.2812C122.71 68.8632 122.781 69.4827 123.065 70.0143C123.348 70.546 123.824 70.95 124.394 71.1447L131.228 73.4667C131.799 73.6599 132.422 73.6288 132.972 73.3797C133.521 73.1306 133.955 72.6822 134.186 72.1252C133.737 72.2445 133.263 72.2275 132.824 72.0765Z" fill="url(#paint11_linear_1_5936)"/>
<path d="M148.096 74.2262L141.262 71.9042C140.665 71.7027 140.012 71.7461 139.446 72.025C138.881 72.3039 138.449 72.7955 138.246 73.392C138.043 73.9853 138.083 74.6346 138.358 75.1984C138.632 75.7622 139.118 76.1948 139.71 76.4019L146.544 78.7239C146.837 78.8255 147.148 78.8683 147.459 78.8497C147.769 78.8311 148.073 78.7516 148.353 78.6157C148.632 78.4798 148.883 78.2902 149.089 78.0576C149.295 77.8251 149.454 77.5542 149.555 77.2604C149.659 76.9655 149.704 76.6529 149.687 76.3405C149.67 76.0282 149.592 75.7223 149.456 75.4404C149.32 75.1584 149.131 74.9061 148.897 74.6977C148.664 74.4894 148.391 74.3291 148.096 74.2262Z" fill="white"/>
<path style="mix-blend-mode:multiply" d="M148.155 77.3392L139.315 74.3342C138.873 74.1839 138.484 73.9075 138.197 73.5391C138.041 74.121 138.112 74.7405 138.396 75.2721C138.679 75.8038 139.155 76.2078 139.725 76.4025L146.559 78.7246C147.129 78.919 147.751 78.889 148.3 78.6407C148.849 78.3923 149.282 77.9444 149.512 77.3879C149.064 77.5036 148.593 77.4866 148.155 77.3392Z" fill="url(#paint12_linear_1_5936)"/>
<path d="M129.938 77.1708L123.105 74.8488C122.811 74.7472 122.5 74.7044 122.189 74.723C121.879 74.7415 121.575 74.821 121.296 74.9569C121.016 75.0928 120.766 75.2825 120.559 75.515C120.353 75.7476 120.195 76.0185 120.093 76.3122C119.888 76.9061 119.926 77.5572 120.201 78.1225C120.476 78.6878 120.964 79.121 121.558 79.3269L128.391 81.649C128.989 81.8505 129.642 81.8071 130.207 81.5282C130.773 81.2493 131.204 80.7576 131.408 80.1611C131.604 79.5697 131.56 78.9248 131.285 78.3655C131.011 77.8061 130.527 77.3771 129.938 77.1708Z" fill="white"/>
<path style="mix-blend-mode:multiply" d="M130.002 80.2796L121.158 77.2795C120.714 77.1239 120.327 76.8404 120.045 76.4648C119.889 77.0468 119.96 77.6663 120.243 78.1979C120.527 78.7295 121.002 79.1336 121.573 79.3283L128.406 81.6503C128.978 81.8435 129.601 81.8124 130.15 81.5633C130.7 81.3142 131.133 80.8658 131.364 80.3088C130.917 80.4344 130.443 80.4242 130.002 80.2796Z" fill="url(#paint13_linear_1_5936)"/>
<path d="M145.276 82.4353L138.442 80.1133C137.848 79.9092 137.197 79.9486 136.632 80.2229C136.067 80.4971 135.633 80.9839 135.426 81.5767C135.222 82.1706 135.261 82.8212 135.536 83.3861C135.81 83.951 136.297 84.3844 136.89 84.5914L143.724 86.9134C144.318 87.1175 144.969 87.0781 145.534 86.8038C146.099 86.5296 146.533 86.0428 146.74 85.45C146.944 84.8561 146.905 84.2056 146.631 83.6406C146.356 83.0757 145.869 82.6423 145.276 82.4353Z" fill="white"/>
<path style="mix-blend-mode:multiply" d="M145.333 85.5462L136.494 82.5412C136.051 82.3923 135.662 82.1156 135.376 81.7461C135.22 82.328 135.291 82.9475 135.574 83.4792C135.858 84.0108 136.333 84.4149 136.904 84.6096L143.737 86.9316C144.309 87.1259 144.933 87.0954 145.482 86.8462C146.032 86.5969 146.465 86.1478 146.695 85.5901C146.247 85.7109 145.773 85.6956 145.333 85.5462Z" fill="url(#paint14_linear_1_5936)"/>
<path d="M157.324 110.287C157.324 111.138 156.986 111.955 156.383 112.557C155.781 113.159 154.964 113.497 154.112 113.497C153.261 113.496 152.445 113.157 151.843 112.555C151.24 111.954 150.902 111.138 150.9 110.287C150.9 109.435 151.239 108.618 151.841 108.016C152.443 107.413 153.26 107.074 154.112 107.072C154.534 107.072 154.952 107.155 155.342 107.317C155.732 107.479 156.087 107.716 156.385 108.014C156.683 108.313 156.92 108.667 157.081 109.057C157.242 109.447 157.325 109.865 157.324 110.287Z" fill="#0FB4A5"/>
<path d="M148.902 104.698C148.903 104.921 148.859 105.142 148.774 105.349C148.689 105.555 148.564 105.743 148.406 105.901C148.249 106.059 148.061 106.185 147.855 106.27C147.648 106.356 147.427 106.4 147.203 106.4C146.752 106.4 146.318 106.221 145.999 105.901C145.679 105.582 145.5 105.149 145.5 104.698C145.5 104.474 145.544 104.253 145.63 104.047C145.715 103.841 145.841 103.653 145.999 103.495C146.158 103.338 146.345 103.213 146.552 103.128C146.759 103.043 146.98 102.999 147.203 103C147.654 103 148.086 103.179 148.405 103.497C148.723 103.816 148.902 104.247 148.902 104.698Z" fill="#0FB4A5"/>
<defs>
<linearGradient id="paint0_linear_1_5936" x1="66.7196" y1="87.5232" x2="16.3851" y2="66.2865" gradientUnits="userSpaceOnUse">
<stop stop-color="white" stop-opacity="0"/>
<stop offset="1" stop-color="#235196"/>
</linearGradient>
<linearGradient id="paint1_linear_1_5936" x1="18.7655" y1="47.8356" x2="49.968" y2="76.2501" gradientUnits="userSpaceOnUse">
<stop stop-color="white" stop-opacity="0"/>
<stop offset="1" stop-color="#235196"/>
</linearGradient>
<linearGradient id="paint2_linear_1_5936" x1="130.361" y1="60.3586" x2="5.89477" y2="49.1499" gradientUnits="userSpaceOnUse">
<stop stop-color="white" stop-opacity="0"/>
<stop offset="1" stop-color="#235196"/>
</linearGradient>
<linearGradient id="paint3_linear_1_5936" x1="138.27" y1="30.7561" x2="141.325" y2="44.8359" gradientUnits="userSpaceOnUse">
<stop stop-color="white" stop-opacity="0"/>
<stop offset="1" stop-color="#235196"/>
</linearGradient>
<linearGradient id="paint4_linear_1_5936" x1="153.603" y1="36.026" x2="156.66" y2="50.1012" gradientUnits="userSpaceOnUse">
<stop stop-color="white" stop-opacity="0"/>
<stop offset="1" stop-color="#235196"/>
</linearGradient>
<linearGradient id="paint5_linear_1_5936" x1="135.446" y1="38.968" x2="138.503" y2="53.0432" gradientUnits="userSpaceOnUse">
<stop stop-color="white" stop-opacity="0"/>
<stop offset="1" stop-color="#235196"/>
</linearGradient>
<linearGradient id="paint6_linear_1_5936" x1="150.777" y1="44.2327" x2="153.838" y2="58.3095" gradientUnits="userSpaceOnUse">
<stop stop-color="white" stop-opacity="0"/>
<stop offset="1" stop-color="#235196"/>
</linearGradient>
<linearGradient id="paint7_linear_1_5936" x1="132.625" y1="47.1763" x2="135.682" y2="61.2515" gradientUnits="userSpaceOnUse">
<stop stop-color="white" stop-opacity="0"/>
<stop offset="1" stop-color="#235196"/>
</linearGradient>
<linearGradient id="paint8_linear_1_5936" x1="147.955" y1="52.4411" x2="151.01" y2="66.5208" gradientUnits="userSpaceOnUse">
<stop stop-color="white" stop-opacity="0"/>
<stop offset="1" stop-color="#235196"/>
</linearGradient>
<linearGradient id="paint9_linear_1_5936" x1="129.802" y1="55.3817" x2="132.857" y2="69.4615" gradientUnits="userSpaceOnUse">
<stop stop-color="white" stop-opacity="0"/>
<stop offset="1" stop-color="#235196"/>
</linearGradient>
<linearGradient id="paint10_linear_1_5936" x1="145.132" y1="60.651" x2="148.188" y2="74.7262" gradientUnits="userSpaceOnUse">
<stop stop-color="white" stop-opacity="0"/>
<stop offset="1" stop-color="#235196"/>
</linearGradient>
<linearGradient id="paint11_linear_1_5936" x1="126.975" y1="63.595" x2="130.036" y2="77.6717" gradientUnits="userSpaceOnUse">
<stop stop-color="white" stop-opacity="0"/>
<stop offset="1" stop-color="#235196"/>
</linearGradient>
<linearGradient id="paint12_linear_1_5936" x1="142.31" y1="68.8593" x2="145.365" y2="82.9391" gradientUnits="userSpaceOnUse">
<stop stop-color="white" stop-opacity="0"/>
<stop offset="1" stop-color="#235196"/>
</linearGradient>
<linearGradient id="paint13_linear_1_5936" x1="124.153" y1="71.8003" x2="127.213" y2="85.8817" gradientUnits="userSpaceOnUse">
<stop stop-color="white" stop-opacity="0"/>
<stop offset="1" stop-color="#235196"/>
</linearGradient>
<linearGradient id="paint14_linear_1_5936" x1="139.486" y1="77.0683" x2="142.543" y2="91.1435" gradientUnits="userSpaceOnUse">
<stop stop-color="white" stop-opacity="0"/>
<stop offset="1" stop-color="#235196"/>
</linearGradient>
</defs>
</svg>
