<svg width="24" height="16" viewBox="0 0 24 16" fill="none" xmlns="http://www.w3.org/2000/svg">
<path d="M22.2026 0.140625H1.79742C0.804703 0.140625 0 0.945328 0 1.93805V14.0674C0 15.06 0.804703 15.8648 1.79742 15.8648H22.2026C23.1952 15.8648 24 15.0601 24 14.0674V1.93805C24 0.945328 23.1953 0.140625 22.2026 0.140625Z" fill="#41479B"/>
<path d="M23.9751 1.63998C23.8335 0.788773 23.094 0.139648 22.2026 0.139648H21.7349L14.069 5.16216V0.139695H9.93103V5.16221L2.26509 0.139695H1.79742C0.906 0.139695 0.166547 0.788773 0.0248906 1.64002L6.57698 5.93284H0V10.0708H6.57698L0.0248906 14.3635C0.166547 15.2147 0.906 15.8638 1.79742 15.8638H2.26509L9.93103 10.8413V15.8638H14.069V10.8413L21.7349 15.8638H22.2026C23.094 15.8638 23.8335 15.2147 23.9751 14.3635L17.423 10.0707H24V5.93274H17.423L23.9751 1.63998Z" fill="#F5F5F5"/>
<path d="M13.2414 0.140625H10.7586V6.7613H0V9.24408H10.7586V15.8647H13.2414V9.24408H24V6.7613H13.2414V0.140625Z" fill="#FF4B55"/>
<path d="M1.16162 15.7475L9.9077 10.0703H8.38764L0.431824 15.2346C0.626496 15.4618 0.876667 15.6399 1.16162 15.7475Z" fill="#FF4B55"/>
<path d="M16.236 10.0703H14.7159L23.187 15.569C23.4241 15.4133 23.6219 15.203 23.763 14.9561L16.236 10.0703Z" fill="#FF4B55"/>
<path d="M0.189941 1.13416L7.58354 5.93356H9.1036L0.725535 0.495117C0.500582 0.662555 0.316504 0.881461 0.189941 1.13416Z" fill="#FF4B55"/>
<path d="M15.5884 5.93289L23.5588 0.759063C23.362 0.532609 23.1098 0.355609 22.8229 0.25L14.0684 5.93289H15.5884Z" fill="#FF4B55"/>
</svg>
