<svg width="24" height="24" viewBox="0 0 24 24" fill="none" xmlns="http://www.w3.org/2000/svg">
<path d="M14.9989 1.99988H5.99961C5.46921 1.99988 4.96054 2.21058 4.5855 2.58562C4.21045 2.96066 3.99976 3.46933 3.99976 3.99973V19.9985C3.99976 20.5289 4.21045 21.0376 4.5855 21.4126C4.96054 21.7877 5.46921 21.9984 5.99961 21.9984H17.9987C18.5291 21.9984 19.0378 21.7877 19.4128 21.4126C19.7879 21.0376 19.9986 20.5289 19.9986 19.9985V6.9995L14.9989 1.99988Z" stroke="#E7000B" stroke-width="1.99985" stroke-linecap="round" stroke-linejoin="round"/>
<path d="M13.9989 1.99988V5.99988C13.9989 6.53031 14.2096 7.03902 14.5847 7.41409C14.9598 7.78916 15.4685 7.99988 15.9989 7.99988H19.9989" stroke="#E7000B" stroke-width="1.99985" stroke-linecap="round" stroke-linejoin="round"/>
<path d="M9.99939 8.99933H7.99939" stroke="#E7000B" stroke-width="1.99985" stroke-linecap="round" stroke-linejoin="round"/>
<path d="M15.9994 12.999H7.99939" stroke="#E7000B" stroke-width="1.99985" stroke-linecap="round" stroke-linejoin="round"/>
<path d="M15.9994 16.9987H7.99939" stroke="#E7000B" stroke-width="1.99985" stroke-linecap="round" stroke-linejoin="round"/>
</svg>
