<svg width="20" height="20" viewBox="0 0 20 20" fill="none" xmlns="http://www.w3.org/2000/svg">
<path fill-rule="evenodd" clip-rule="evenodd" d="M4.5807 5.83268C4.3072 5.3855 4.1665 4.83506 4.1665 4.16602C4.1665 2.84692 5.15846 1.66602 6.6665 1.66602C8.1765 1.66602 9.39423 2.67737 9.99984 4.26087C10.6054 2.67737 11.8232 1.66602 13.3332 1.66602C14.8412 1.66602 15.8332 2.84692 15.8332 4.16602C15.8332 4.83506 15.6925 5.3855 15.419 5.83268H16.6665C17.587 5.83268 18.3332 6.57887 18.3332 7.49935V9.16602C18.3332 10.0865 17.587 10.8327 16.6665 10.8327V16.666C16.6665 17.5865 15.9203 18.3327 14.9998 18.3327H4.99984C4.07936 18.3327 3.33317 17.5865 3.33317 16.666V10.8327C2.4127 10.8327 1.6665 10.0865 1.6665 9.16602V7.49935C1.6665 6.57887 2.4127 5.83268 3.33317 5.83268H4.5807ZM9.16662 7.49888H3.33329V9.16555H9.16662V7.49888ZM16.6666 9.16555H10.8333V7.49888H16.6666V9.16555ZM9.16639 16.6665V10.8331H4.99972V16.6665H9.16639ZM15 16.6665H10.8333V10.8331H15V16.6665ZM6.66662 3.33315C6.14966 3.33315 5.83329 3.70978 5.83329 4.16648C5.83329 5.21084 6.68079 5.70741 8.69114 5.81189C8.46771 4.25948 7.6351 3.33315 6.66662 3.33315ZM11.2497 5.81189C11.4732 4.25948 12.3058 3.33315 13.2742 3.33315C13.7912 3.33315 14.1076 3.70978 14.1076 4.16648C14.1076 5.21084 13.2601 5.70741 11.2497 5.81189Z" fill="#333"/>
</svg>
