<svg width="24" height="25" viewBox="0 0 24 25" fill="none" xmlns="http://www.w3.org/2000/svg">
<path fill-rule="evenodd" clip-rule="evenodd" d="M16.5532 2.50002C15.1056 2.5 14.1724 2.67246 13.1027 3.19607C12.7066 3.38993 12.335 3.62339 11.99 3.89576C11.6582 3.63866 11.3015 3.41592 10.9218 3.22813C9.83132 2.68878 8.85028 2.5 7.45455 2.5C3.71644 2.5 1 5.59727 1 9.61988C1 12.6578 2.69383 15.5923 5.84884 18.4299C7.50489 19.9193 9.61932 21.3933 11.1336 22.1775L12 22.6261L12.8664 22.1775C14.3807 21.3933 16.4951 19.9193 18.1512 18.4299C21.3062 15.5923 23 12.6578 23 9.61988C23 5.63984 20.2579 2.51536 16.5532 2.50002ZM21 9.61988C21 11.9999 19.5862 14.4493 16.8137 16.9429C15.3022 18.3023 13.359 19.6609 12 20.3737C10.641 19.6609 8.69782 18.3023 7.18628 16.9429C4.41382 14.4493 3 11.9999 3 9.61988C3 6.64772 4.88364 4.5 7.45455 4.5C8.56428 4.5 9.24813 4.63159 10.0351 5.02084C10.5 5.25077 10.9109 5.55437 11.2665 5.93377L12.0023 6.7187L12.7315 5.92755C13.0951 5.53295 13.512 5.22244 13.9819 4.99243C14.7459 4.61849 15.387 4.5 16.5491 4.50001C19.0882 4.51053 21 6.68896 21 9.61988Z" fill="#A1A3A6"/>
</svg>
