<svg width="24" height="24" viewBox="0 0 24 24" fill="none" xmlns="http://www.w3.org/2000/svg">
<path d="M12 17.8594C8.7691 17.8594 6.14062 15.2309 6.14062 12C6.14062 8.7691 8.7691 6.14062 12 6.14062C15.2309 6.14062 17.8594 8.7691 17.8594 12C17.8594 15.2309 15.2309 17.8594 12 17.8594Z" fill="#FFCD57"/>
<path d="M12 4.73438C11.6116 4.73438 11.2969 4.41962 11.2969 4.03125V3.09375C11.2969 2.70538 11.6116 2.39062 12 2.39062C12.3884 2.39062 12.7031 2.70538 12.7031 3.09375V4.03125C12.7031 4.41962 12.3884 4.73438 12 4.73438Z" fill="#F48C24"/>
<path d="M8.01647 5.80238C7.7733 5.80238 7.5371 5.6764 7.40691 5.45063L6.93816 4.63874C6.74388 4.30256 6.85906 3.87244 7.19542 3.67835C7.53179 3.48408 7.96172 3.59943 8.15581 3.93562L8.62456 4.7475C8.81883 5.08387 8.70366 5.51398 8.3673 5.70808C8.25652 5.77198 8.13567 5.80238 8.01647 5.80238Z" fill="#F48C24"/>
<path d="M5.09648 8.71904C4.97728 8.71904 4.85625 8.68865 4.74565 8.62456L3.93358 8.15581C3.5974 7.96172 3.48223 7.53179 3.67632 7.19542C3.87041 6.85906 4.30052 6.74388 4.63671 6.93816L5.44878 7.40691C5.78496 7.601 5.90013 8.03093 5.70604 8.3673C5.57585 8.59288 5.33946 8.71904 5.09648 8.71904Z" fill="#F48C24"/>
<path d="M4.03125 12.7031H3.09375C2.70538 12.7031 2.39062 12.3884 2.39062 12C2.39062 11.6116 2.70538 11.2969 3.09375 11.2969H4.03125C4.41962 11.2969 4.73438 11.6116 4.73438 12C4.73438 12.3884 4.41962 12.7031 4.03125 12.7031Z" fill="#F48C24"/>
<path d="M20.9062 12.7031H19.9688C19.5804 12.7031 19.2656 12.3884 19.2656 12C19.2656 11.6116 19.5804 11.2969 19.9688 11.2969H20.9062C21.2946 11.2969 21.6094 11.6116 21.6094 12C21.6094 12.3884 21.2946 12.7031 20.9062 12.7031Z" fill="#F48C24"/>
<path d="M18.9031 8.71904C18.6602 8.71904 18.4238 8.59288 18.2936 8.3673C18.0993 8.03093 18.2147 7.601 18.5508 7.40691L19.3627 6.93816C19.6991 6.74388 20.129 6.85906 20.3233 7.19542C20.5174 7.53179 20.4022 7.96172 20.0659 8.15581L19.254 8.62456C19.1434 8.68865 19.0223 8.71904 18.9031 8.71904Z" fill="#F48C24"/>
<path d="M15.9838 5.80238C15.8645 5.80238 15.7437 5.77198 15.6329 5.70808C15.2966 5.5138 15.1814 5.08387 15.3757 4.7475L15.8444 3.93562C16.0385 3.59943 16.4684 3.48408 16.8048 3.67835C17.1412 3.87244 17.2563 4.30256 17.0621 4.63874L16.5933 5.45063C16.4631 5.6764 16.2269 5.80238 15.9838 5.80238Z" fill="#F48C24"/>
<path d="M19.4531 21.6094H0.703125C0.314758 21.6094 0 21.2946 0 20.9062C0 18.685 1.06897 16.6066 3.0097 15.0538C4.90466 13.5381 7.41486 12.7031 10.0781 12.7031C12.7414 12.7031 15.2516 13.5381 17.1465 15.0538C19.0873 16.6066 20.1562 18.685 20.1562 20.9062C20.1562 21.2946 19.8415 21.6094 19.4531 21.6094Z" fill="#0FB4A5"/>
<path d="M23.2969 21.6094H12.0469C11.6585 21.6094 11.3438 21.2946 11.3438 20.9062C11.3438 19.4418 12.0187 18.0729 13.2442 17.0515C14.4327 16.0611 16.0052 15.5156 17.6719 15.5156C19.3385 15.5156 20.911 16.0611 22.0995 17.0515C23.3251 18.0729 24 19.4418 24 20.9062C24 21.2946 23.6852 21.6094 23.2969 21.6094Z" fill="#58E3D2"/>
</svg>
