<svg width="39" height="38" viewBox="0 0 39 38" fill="none" xmlns="http://www.w3.org/2000/svg">
<circle cx="19.5" cy="19" r="19" fill="#0FB4A5"/>
<mask id="mask0_1_6298" style="mask-type:alpha" maskUnits="userSpaceOnUse" x="7" y="6" width="25" height="25">
<rect x="7.5" y="6.74219" width="24" height="24" fill="#D9D9D9"/>
</mask>
<g mask="url(#mask0_1_6298)">
<path d="M16.125 27.7422C14.5583 27.7422 13.2292 27.1964 12.1375 26.1047C11.0458 25.013 10.5 23.6839 10.5 22.1172C10.5 21.3672 10.6417 20.6505 10.925 19.9672C11.2083 19.2839 11.6167 18.6755 12.15 18.1422L18.9 11.3922C19.4333 10.8589 20.0417 10.4505 20.725 10.1672C21.4083 9.88385 22.125 9.74219 22.875 9.74219C24.4417 9.74219 25.7708 10.288 26.8625 11.3797C27.9542 12.4714 28.5 13.8005 28.5 15.3672C28.5 16.1172 28.3583 16.8339 28.075 17.5172C27.7917 18.2005 27.3833 18.8089 26.85 19.3422L20.1 26.0922C19.5667 26.6255 18.9583 27.0339 18.275 27.3172C17.5917 27.6005 16.875 27.7422 16.125 27.7422ZM22.775 20.5922L25.45 17.9422C25.7833 17.6089 26.0417 17.2172 26.225 16.7672C26.4083 16.3172 26.5 15.8505 26.5 15.3672C26.5 14.3672 26.1458 13.513 25.4375 12.8047C24.7292 12.0964 23.875 11.7422 22.875 11.7422C22.3917 11.7422 21.925 11.8339 21.475 12.0172C21.025 12.2005 20.6333 12.4589 20.3 12.7922L17.65 15.4672L22.775 20.5922ZM16.125 25.7422C16.6083 25.7422 17.075 25.6505 17.525 25.4672C17.975 25.2839 18.3667 25.0255 18.7 24.6922L21.35 22.0172L16.225 16.8922L13.55 19.5422C13.2167 19.8755 12.9583 20.2672 12.775 20.7172C12.5917 21.1672 12.5 21.6339 12.5 22.1172C12.5 23.1172 12.8542 23.9714 13.5625 24.6797C14.2708 25.388 15.125 25.7422 16.125 25.7422Z" fill="white"/>
</g>
</svg>
