<svg width="24" height="24" viewBox="0 0 24 24" fill="none" xmlns="http://www.w3.org/2000/svg">
<g clip-path="url(#clip0_380_259)">
<path d="M12 18C15.3137 18 18 15.3137 18 12C18 8.68629 15.3137 6 12 6C8.68629 6 6 8.68629 6 12C6 15.3137 8.68629 18 12 18Z" fill="#FFCD57"/>
<path d="M12.0002 4.28571C11.7729 4.28571 11.5549 4.19541 11.3941 4.03466C11.2334 3.87391 11.1431 3.6559 11.1431 3.42857V0.857142C11.1431 0.629814 11.2334 0.411797 11.3941 0.251051C11.5549 0.0903058 11.7729 0 12.0002 0C12.2275 0 12.4456 0.0903058 12.6063 0.251051C12.767 0.411797 12.8574 0.629814 12.8574 0.857142V3.42857C12.8574 3.6559 12.767 3.87391 12.6063 4.03466C12.4456 4.19541 12.2275 4.28571 12.0002 4.28571Z" fill="#FF9841"/>
<path d="M12.0002 24.0025C11.7729 24.0025 11.5549 23.9122 11.3941 23.7515C11.2334 23.5907 11.1431 23.3727 11.1431 23.1454V20.5739C11.1431 20.3466 11.2334 20.1286 11.3941 19.9678C11.5549 19.8071 11.7729 19.7168 12.0002 19.7168C12.2275 19.7168 12.4456 19.8071 12.6063 19.9678C12.767 20.1286 12.8574 20.3466 12.8574 20.5739V23.1454C12.8574 23.3727 12.767 23.5907 12.6063 23.7515C12.4456 23.9122 12.2275 24.0025 12.0002 24.0025Z" fill="#FF9841"/>
<path d="M3.42857 12.8588H0.857142C0.629814 12.8588 0.411797 12.7685 0.251051 12.6078C0.0903058 12.447 0 12.229 0 12.0017C0 11.7743 0.0903058 11.5563 0.251051 11.3956C0.411797 11.2348 0.629814 11.1445 0.857142 11.1445H3.42857C3.6559 11.1445 3.87391 11.2348 4.03466 11.3956C4.19541 11.5563 4.28571 11.7743 4.28571 12.0017C4.28571 12.229 4.19541 12.447 4.03466 12.6078C3.87391 12.7685 3.6559 12.8588 3.42857 12.8588Z" fill="#FF9841"/>
<path d="M23.1429 12.8588H20.5715C20.3442 12.8588 20.1262 12.7685 19.9654 12.6078C19.8047 12.447 19.7144 12.229 19.7144 12.0017C19.7144 11.7743 19.8047 11.5563 19.9654 11.3956C20.1262 11.2348 20.3442 11.1445 20.5715 11.1445H23.1429C23.3703 11.1445 23.5883 11.2348 23.749 11.3956C23.9098 11.5563 24.0001 11.7743 24.0001 12.0017C24.0001 12.229 23.9098 12.447 23.749 12.6078C23.5883 12.7685 23.3703 12.8588 23.1429 12.8588Z" fill="#FF9841"/>
<path d="M5.93986 6.79689C5.82705 6.79754 5.71522 6.77592 5.61079 6.73326C5.50636 6.69061 5.41138 6.62776 5.33129 6.54832L3.51414 4.71403C3.38386 4.5488 3.3189 4.34141 3.33165 4.13137C3.34441 3.92134 3.43397 3.72333 3.58329 3.57507C3.73261 3.42681 3.93125 3.33866 4.14137 3.3274C4.35149 3.31614 4.55841 3.38257 4.72271 3.51403L6.54843 5.33117C6.62877 5.41086 6.69253 5.50566 6.73605 5.61011C6.77956 5.71456 6.80197 5.82659 6.80197 5.93974C6.80197 6.0529 6.77956 6.16493 6.73605 6.26938C6.69253 6.37383 6.62877 6.46863 6.54843 6.54832C6.46834 6.62776 6.37335 6.69061 6.26892 6.73326C6.16449 6.77592 6.05266 6.79754 5.93986 6.79689Z" fill="#FF9841"/>
<path d="M19.877 20.7322C19.6521 20.7313 19.4367 20.642 19.277 20.4836L17.4513 18.6665C17.2899 18.5051 17.1992 18.2862 17.1992 18.0579C17.1992 17.8297 17.2899 17.6107 17.4513 17.4493C17.6127 17.2879 17.8316 17.1973 18.0599 17.1973C18.2881 17.1973 18.507 17.2879 18.6684 17.4493L20.4856 19.2836C20.6452 19.4442 20.7348 19.6615 20.7348 19.8879C20.7348 20.1144 20.6452 20.3316 20.4856 20.4922C20.3224 20.6495 20.1036 20.7358 19.877 20.7322Z" fill="#FF9841"/>
<path d="M4.12263 20.7334C4.00983 20.734 3.898 20.7124 3.79357 20.6698C3.68914 20.6271 3.59415 20.5643 3.51406 20.4848C3.35701 20.3246 3.26904 20.1092 3.26904 19.8848C3.26904 19.6605 3.35701 19.445 3.51406 19.2848L5.33121 17.4591C5.49261 17.2977 5.71152 17.207 5.93978 17.207C6.16803 17.207 6.38694 17.2977 6.54835 17.4591C6.70975 17.6205 6.80043 17.8394 6.80043 18.0677C6.80043 18.2959 6.70975 18.5148 6.54835 18.6763L4.72263 20.4848C4.56298 20.6432 4.3475 20.7324 4.12263 20.7334Z" fill="#FF9841"/>
<path d="M18.0599 6.79678C17.9471 6.79743 17.8352 6.77581 17.7308 6.73316C17.6264 6.6905 17.5314 6.62765 17.4513 6.54821C17.371 6.46853 17.3072 6.37373 17.2637 6.26928C17.2202 6.16483 17.1978 6.05279 17.1978 5.93964C17.1978 5.82649 17.2202 5.71445 17.2637 5.61C17.3072 5.50555 17.371 5.41075 17.4513 5.33107L19.277 3.51393C19.3518 3.41907 19.4458 3.34109 19.5529 3.2851C19.6599 3.22912 19.7776 3.1964 19.8981 3.18908C20.0187 3.18175 20.1395 3.2 20.2525 3.24263C20.3656 3.28525 20.4683 3.35128 20.554 3.4364C20.6397 3.52151 20.7065 3.62379 20.7499 3.73651C20.7934 3.84924 20.8125 3.96987 20.806 4.09049C20.7995 4.21112 20.7677 4.32902 20.7124 4.43646C20.6572 4.5439 20.5799 4.63846 20.4856 4.71393L18.6684 6.54821C18.5883 6.62765 18.4934 6.6905 18.3889 6.73316C18.2845 6.77581 18.1727 6.79743 18.0599 6.79678Z" fill="#FF9841"/>
<path d="M12.0002 18.8588C10.644 18.8588 9.31824 18.4566 8.19059 17.7032C7.06293 16.9497 6.18404 15.8788 5.66504 14.6258C5.14604 13.3728 5.01024 11.9941 5.27483 10.6639C5.53941 9.33376 6.19249 8.11193 7.15148 7.15294C8.11047 6.19395 9.33229 5.54088 10.6624 5.27629C11.9926 5.01171 13.3713 5.1475 14.6243 5.6665C15.8773 6.1855 16.9482 7.0644 17.7017 8.19205C18.4552 9.3197 18.8573 10.6455 18.8573 12.0017C18.8573 13.8203 18.1349 15.5644 16.8489 16.8504C15.563 18.1364 13.8188 18.8588 12.0002 18.8588ZM12.0002 6.85882C10.983 6.85882 9.98873 7.16044 9.14299 7.72555C8.29725 8.29065 7.63808 9.09385 7.24883 10.0336C6.85958 10.9733 6.75773 12.0074 6.95617 13.005C7.15461 14.0026 7.64442 14.919 8.36366 15.6382C9.0829 16.3575 9.99927 16.8473 10.9969 17.0457C11.9945 17.2441 13.0286 17.1423 13.9683 16.753C14.908 16.3638 15.7112 15.7046 16.2763 14.8589C16.8414 14.0132 17.1431 13.0188 17.1431 12.0017C17.1431 10.6377 16.6012 9.3296 15.6368 8.36513C14.6723 7.40065 13.3642 6.85882 12.0002 6.85882Z" fill="#FF9841"/>
</g>
<defs>
<clipPath id="clip0_380_259">
<rect width="24" height="24" fill="white"/>
</clipPath>
</defs>
</svg>
