<svg width="24" height="24" viewBox="0 0 24 24" fill="none" xmlns="http://www.w3.org/2000/svg">
<g clip-path="url(#clip0_298_304)">
<path d="M21.2284 10.79C18.2834 10.756 15.9226 8.34251 15.9537 5.3975C15.9701 3.12901 17.3611 1.09746 19.4702 0.26218C18.7339 0.0634093 17.9719 -0.023048 17.2098 0.00523243C13.1422 0.0506832 9.8813 3.38434 9.92574 7.45188C9.8813 11.5194 13.1422 14.8531 17.2098 14.8985C20.2883 14.9127 23.026 12.9431 23.9916 10.0197C23.1703 10.5514 22.2063 10.8203 21.2284 10.79Z" fill="#FFCD57"/>
<path d="M7.1499 9.84766C9.46542 9.00704 12.024 10.2022 12.8647 12.5176L13.0513 13.0293L13.5454 12.8008C14.4394 12.3871 15.4737 12.4057 16.3521 12.8516C17.2304 13.2976 17.8558 14.122 18.0493 15.0879L18.1479 15.5781L18.6382 15.4795C18.9023 15.4262 19.1717 15.3994 19.4409 15.3994C21.6779 15.3994 23.4917 17.213 23.4917 19.4502C23.4916 21.6872 21.6778 23.501 19.4409 23.501H4.13525C2.15114 23.4978 0.535203 21.9036 0.505371 19.9199C0.475974 17.9362 2.04306 16.2951 4.02588 16.2324L4.71533 16.2109L4.47998 15.5625C3.63939 13.2471 4.8346 10.6887 7.1499 9.84766Z" fill="#008479" stroke="#0FB4A5"/>
<path d="M21.0954 5.9187L22.3736 6.62531L22.1296 5.12846L23.1639 4.06855L21.7345 3.85019L21.0954 2.48828L20.456 3.85019L19.0269 4.06855L20.0611 5.12846L19.8169 6.62531L21.0954 5.9187Z" fill="#FFCD57"/>
</g>
<defs>
<clipPath id="clip0_298_304">
<rect width="24" height="24" fill="white"/>
</clipPath>
</defs>
</svg>
