<svg width="20" height="20" viewBox="0 0 20 20" fill="none" xmlns="http://www.w3.org/2000/svg">
<g clip-path="url(#clip0_20223_1636)">
<path d="M12.0739 3.33075H7.91053L5.82882 5.8288H3.33077C2.88909 5.8288 2.4655 6.00426 2.15318 6.31657C1.84086 6.62889 1.66541 7.05248 1.66541 7.49417V14.9883C1.66541 15.43 1.84086 15.8536 2.15318 16.1659C2.4655 16.4782 2.88909 16.6537 3.33077 16.6537H16.6537C17.0954 16.6537 17.519 16.4782 17.8313 16.1659C18.1436 15.8536 18.3191 15.43 18.3191 14.9883V7.49417C18.3191 7.05248 18.1436 6.62889 17.8313 6.31657C17.519 6.00426 17.0954 5.8288 16.6537 5.8288H14.1557L12.0739 3.33075Z" stroke="#F54900" stroke-width="1.66537" stroke-linecap="round" stroke-linejoin="round"/>
<path d="M9.99219 13.3229C11.3718 13.3229 12.4902 12.2045 12.4902 10.8249C12.4902 9.44526 11.3718 8.32684 9.99219 8.32684C8.61256 8.32684 7.49414 9.44526 7.49414 10.8249C7.49414 12.2045 8.61256 13.3229 9.99219 13.3229Z" stroke="#F54900" stroke-width="1.66537" stroke-linecap="round" stroke-linejoin="round"/>
</g>
<defs>
<clipPath id="clip0_20223_1636">
<rect width="19.9844" height="19.9844" fill="white"/>
</clipPath>
</defs>
</svg>
