<svg width="25" height="24" viewBox="0 0 25 24" fill="none" xmlns="http://www.w3.org/2000/svg">
<path d="M19.6716 7.22142C19.3607 7.22142 19.0635 7.28104 18.7907 7.38941C18.5139 6.37587 17.5845 5.62855 16.4837 5.62855C15.8719 5.62855 15.3131 5.85936 14.8898 6.23841C14.4665 5.85936 13.9077 5.62855 13.2959 5.62855C13.0166 5.62855 12.7482 5.67666 12.4989 5.76501V3.18617C12.4989 1.86871 11.4263 0.796875 10.108 0.796875C8.78966 0.796875 7.7171 1.86871 7.7171 3.18617V10.2141C7.33238 9.82967 7.01667 9.51423 7.01667 9.51423C6.13284 8.63094 4.70196 8.58044 3.76101 9.39758C2.81544 10.2141 2.66295 11.6372 3.41385 12.6375C3.42235 12.6488 3.43117 12.6599 3.44031 12.6708L6.98506 16.9014C7.36999 17.3608 7.92543 17.6455 8.41545 17.8967C8.77207 18.0794 9.31103 18.3557 9.31103 18.5309V20.8138C9.31103 22.1313 10.3836 23.2031 11.7019 23.2031H18.0777C19.396 23.2031 20.4686 22.1313 20.4686 20.8138V19.1679C20.4686 18.8528 20.7713 18.4732 21.0918 18.0714C21.5468 17.5009 22.0625 16.8544 22.0625 15.9822V9.61071C22.0625 8.29325 20.9899 7.22142 19.6716 7.22142ZM19.8453 17.0786C19.3904 17.6491 18.8746 18.2957 18.8746 19.1679V20.8138C18.8746 21.253 18.5171 21.6103 18.0777 21.6103H11.7019C11.2625 21.6103 10.905 21.253 10.905 20.8138V18.5309C10.905 17.3824 9.8865 16.8604 9.14277 16.4792C8.77005 16.2882 8.38469 16.0907 8.20713 15.8788L4.67843 11.6672C4.44003 11.3347 4.49321 10.8704 4.80482 10.6013C5.11846 10.3289 5.59499 10.3461 5.8896 10.6405C5.8896 10.6405 7.8206 12.5702 7.95098 12.7003C8.45095 13.1989 9.31098 12.8454 9.31098 12.1366V3.18617C9.31098 2.74702 9.6685 2.38974 10.1079 2.38974C10.5474 2.38974 10.9049 2.74702 10.9049 3.18617V9.61071C10.9049 10.0505 11.2617 10.4071 11.7019 10.4071C12.142 10.4071 12.4988 10.0505 12.4988 9.61071V8.01785C12.4988 7.57869 12.8564 7.22142 13.2958 7.22142C13.7353 7.22142 14.0928 7.57869 14.0928 8.01785V9.61071C14.0928 10.0505 14.4496 10.4071 14.8897 10.4071C15.3299 10.4071 15.6867 10.0505 15.6867 9.61071V8.01785C15.6867 7.57869 16.0442 7.22142 16.4837 7.22142C16.9231 7.22142 17.2806 7.57869 17.2806 8.01785V9.61071C17.2806 10.0505 17.6375 10.4071 18.0776 10.4071C18.5178 10.4071 18.8746 10.0505 18.8746 9.61071C18.8746 9.17156 19.2321 8.81428 19.6715 8.81428C20.111 8.81428 20.4685 9.17156 20.4685 9.61071V15.9822H20.4686C20.4686 16.2972 20.1658 16.6768 19.8453 17.0786Z" fill="url(#paint0_linear_4873_79681)"/>
<defs>
<linearGradient id="paint0_linear_4873_79681" x1="1.66748" y1="-7.54033" x2="22.3075" y2="21.3752" gradientUnits="userSpaceOnUse">
<stop stop-color="#4BB2AB"/>
<stop offset="0.9999" stop-color="#01857A"/>
<stop offset="1" stop-color="#008479"/>
</linearGradient>
</defs>
</svg>
