<svg width="20" height="20" viewBox="0 0 20 20" fill="none" xmlns="http://www.w3.org/2000/svg">
<g clip-path="url(#clip0_20223_1497)">
<path d="M18.3191 9.99221H16.254C15.8901 9.99143 15.536 10.1099 15.2457 10.3294C14.9555 10.549 14.7452 10.8575 14.6469 11.2079L12.6901 18.1692C12.6775 18.2124 12.6512 18.2504 12.6152 18.2774C12.5792 18.3044 12.5353 18.319 12.4903 18.319C12.4452 18.319 12.4014 18.3044 12.3654 18.2774C12.3294 18.2504 12.3031 18.2124 12.2904 18.1692L7.69403 1.81526C7.68142 1.77202 7.65512 1.73403 7.61909 1.70701C7.58306 1.67998 7.53923 1.66537 7.49419 1.66537C7.44915 1.66537 7.40532 1.67998 7.36929 1.70701C7.33325 1.73403 7.30696 1.77202 7.29435 1.81526L5.33754 8.77649C5.23967 9.12551 5.0306 9.43308 4.74206 9.65248C4.45352 9.87189 4.10127 9.99117 3.73879 9.99221H1.66541" stroke="#009689" stroke-width="1.66537" stroke-linecap="round" stroke-linejoin="round"/>
</g>
<defs>
<clipPath id="clip0_20223_1497">
<rect width="19.9844" height="19.9844" fill="white"/>
</clipPath>
</defs>
</svg>
