<svg width="22" height="24" viewBox="0 0 22 24" fill="none" xmlns="http://www.w3.org/2000/svg">
<path d="M16.5002 0.849609C17.4858 0.849763 18.2971 1.65195 18.2971 2.64746V8.29688H16.8987V2.64746C16.8987 2.42927 16.7184 2.2482 16.5002 2.24805H2.19653C1.97825 2.24805 1.79712 2.42918 1.79712 2.64746V21.3525C1.79712 21.5708 1.97825 21.752 2.19653 21.752H7.29712V23.1504H2.19653C1.21083 23.1504 0.398682 22.3481 0.398682 21.3525V2.64746C0.398682 1.66124 1.21031 0.849609 2.19653 0.849609H16.5002ZM14.8528 9.65332C18.5755 9.65341 21.6006 12.6787 21.6008 16.4014C21.6008 20.1243 18.5756 23.1503 14.8528 23.1504C11.1298 23.1504 8.10474 20.1243 8.10474 16.4014C8.10496 12.6786 11.13 9.65332 14.8528 9.65332ZM14.8528 11.0518C11.9068 11.0518 9.50242 13.4554 9.5022 16.4014C9.5022 19.3475 11.9066 21.752 14.8528 21.752C17.7989 21.7519 20.2024 19.3475 20.2024 16.4014C20.2022 13.4555 17.7987 11.0518 14.8528 11.0518ZM7.30591 16.252V17.6504H4.2522V16.252H7.30591ZM15.5608 12.9482V16.252H17.7571V17.6504H14.8528C14.4689 17.6504 14.1537 17.335 14.1536 16.9512V12.9482H15.5608ZM7.85571 12.3994V13.7969H4.2522V12.3994H7.85571ZM10.052 8.54688V9.95312H4.2522V8.54688H10.052ZM14.4534 4.70312V6.10059H4.2522V4.70312H14.4534Z" fill="#008479" stroke="#008479" stroke-width="0.3"/>
</svg>
